<svg width="40" height="40" viewBox="0 0 40 40" fill="none" xmlns="http://www.w3.org/2000/svg">
<path d="M32.3531 12.6046C30.7328 10.9807 28.807 9.69349 26.6869 8.81737C24.5667 7.94125 22.2941 7.4935 20 7.49995H19.9375C10.3234 7.53276 2.5 15.4687 2.5 25.1765V28.7499C2.5 29.413 2.76339 30.0489 3.23223 30.5177C3.70107 30.9866 4.33696 31.2499 5 31.2499H35C35.663 31.2499 36.2989 30.9866 36.7678 30.5177C37.2366 30.0489 37.5 29.413 37.5 28.7499V24.9999C37.5064 22.6959 37.0547 20.4135 36.1711 18.2855C35.2875 16.1576 33.9897 14.2265 32.3531 12.6046ZM35 28.7499H18.7047L27.2609 16.9843C27.4561 16.7162 27.5368 16.3815 27.4852 16.0539C27.4337 15.7263 27.2541 15.4326 26.9859 15.2374C26.7178 15.0423 26.3831 14.9616 26.0555 15.0132C25.7279 15.0647 25.4342 15.2443 25.2391 15.5124L15.6125 28.7499H5V25.1765C5 24.6953 5.02344 24.2203 5.06719 23.7499H8.75C9.08152 23.7499 9.39946 23.6183 9.63388 23.3838C9.8683 23.1494 10 22.8315 10 22.4999C10 22.1684 9.8683 21.8505 9.63388 21.6161C9.39946 21.3816 9.08152 21.2499 8.75 21.2499H5.51094C7.12344 15.1781 12.3859 10.5874 18.75 10.0531V13.7499C18.75 14.0815 18.8817 14.3994 19.1161 14.6338C19.3505 14.8682 19.6685 14.9999 20 14.9999C20.3315 14.9999 20.6495 14.8682 20.8839 14.6338C21.1183 14.3994 21.25 14.0815 21.25 13.7499V10.0515C24.351 10.3125 27.2945 11.5301 29.6736 13.5361C32.0527 15.5422 33.7501 18.2376 34.5312 21.2499H31.25C30.9185 21.2499 30.6005 21.3816 30.3661 21.6161C30.1317 21.8505 30 22.1684 30 22.4999C30 22.8315 30.1317 23.1494 30.3661 23.3838C30.6005 23.6183 30.9185 23.7499 31.25 23.7499H34.9484C34.9813 24.164 35 24.5796 35 24.9999V28.7499Z" fill="#D1EFFF"/>
</svg>
