<svg width="40" height="41" viewBox="0 0 40 41" fill="none" xmlns="http://www.w3.org/2000/svg">
<path d="M25.0749 6.75C22.5213 6.75196 20.0185 7.46428 17.8466 8.80728C15.6747 10.1503 13.9192 12.071 12.7764 14.3547C11.417 14.1564 10.0313 14.2404 8.70575 14.6014C7.3802 14.9623 6.14325 15.5926 5.07205 16.4528C4.00085 17.3129 3.11838 18.3846 2.47968 19.6009C1.84098 20.8173 1.45976 22.1522 1.35979 23.5223C1.25983 24.8925 1.44325 26.2686 1.89864 27.5647C2.35403 28.8609 3.0716 30.0493 4.0066 31.0559C4.94161 32.0624 6.07398 32.8655 7.3331 33.4151C8.59222 33.9646 9.95106 34.2488 11.3249 34.25H25.0749C28.7216 34.25 32.219 32.8013 34.7976 30.2227C37.3762 27.6441 38.8249 24.1467 38.8249 20.5C38.8249 16.8533 37.3762 13.3559 34.7976 10.7773C32.219 8.19866 28.7216 6.75 25.0749 6.75ZM25.0749 31.75H11.3249C9.33576 31.75 7.42811 30.9598 6.02158 29.5533C4.61506 28.1468 3.82488 26.2391 3.82488 24.25C3.82488 22.2609 4.61506 20.3532 6.02158 18.9467C7.42811 17.5402 9.33576 16.75 11.3249 16.75C11.4968 16.75 11.6686 16.75 11.8389 16.7672C11.4971 17.982 11.3241 19.238 11.3249 20.5C11.3249 20.8315 11.4566 21.1495 11.691 21.3839C11.9254 21.6183 12.2434 21.75 12.5749 21.75C12.9064 21.75 13.2243 21.6183 13.4588 21.3839C13.6932 21.1495 13.8249 20.8315 13.8249 20.5C13.8249 18.275 14.4847 16.0999 15.7209 14.2498C16.957 12.3998 18.714 10.9578 20.7697 10.1064C22.8254 9.25487 25.0874 9.03208 27.2697 9.46617C29.4519 9.90025 31.4565 10.9717 33.0298 12.545C34.6032 14.1184 35.6746 16.1229 36.1087 18.3052C36.5428 20.4875 36.32 22.7495 35.4685 24.8052C34.617 26.8609 33.1751 28.6179 31.3251 29.854C29.475 31.0902 27.2999 31.75 25.0749 31.75ZM30.9593 17.1156C31.0755 17.2317 31.1677 17.3696 31.2306 17.5213C31.2935 17.6731 31.3259 17.8357 31.3259 18C31.3259 18.1643 31.2935 18.3269 31.2306 18.4787C31.1677 18.6304 31.0755 18.7683 30.9593 18.8844L23.4593 26.3844C23.3432 26.5006 23.2053 26.5928 23.0536 26.6557C22.9018 26.7186 22.7392 26.751 22.5749 26.751C22.4106 26.751 22.248 26.7186 22.0962 26.6557C21.9445 26.5928 21.8066 26.5006 21.6905 26.3844L17.9405 22.6344C17.706 22.3998 17.5742 22.0817 17.5742 21.75C17.5742 21.4183 17.706 21.1002 17.9405 20.8656C18.1751 20.6311 18.4932 20.4993 18.8249 20.4993C19.1566 20.4993 19.4747 20.6311 19.7093 20.8656L22.5749 23.7328L29.1905 17.1156C29.3066 16.9994 29.4445 16.9072 29.5962 16.8443C29.748 16.7814 29.9106 16.749 30.0749 16.749C30.2392 16.749 30.4018 16.7814 30.5536 16.8443C30.7053 16.9072 30.8432 16.9994 30.9593 17.1156Z" fill="#D1EFFF"/>
</svg>
