<svg width="40" height="40" viewBox="0 0 40 40" fill="none" xmlns="http://www.w3.org/2000/svg">
<path d="M36.7969 33.8766C33.2719 32.1578 31.25 28.4734 31.25 23.7516V21.0516C31.2513 20.5507 31.1016 20.061 30.8203 19.6465C30.5391 19.232 30.1394 18.912 29.6734 18.7281L25.7812 17.1875C25.475 17.065 25.2296 16.8265 25.0985 16.5238C24.9674 16.2212 24.9612 15.879 25.0813 15.5719L28.4125 7.29062C28.6386 6.74709 28.7526 6.16352 28.7479 5.57487C28.7431 4.98621 28.6196 4.40457 28.3847 3.86479C28.1498 3.325 27.8084 2.83816 27.3809 2.43344C26.9534 2.02871 26.4487 1.71441 25.8969 1.50937C24.8221 1.11556 23.6361 1.15642 22.591 1.62326C21.5458 2.0901 20.7239 2.94611 20.3 4.00937C20.2994 4.0156 20.2994 4.02189 20.3 4.02812L17.0156 12.3437C16.8935 12.6514 16.6543 12.898 16.3505 13.0295C16.0468 13.1611 15.7032 13.1667 15.3953 13.0453L11.4234 11.4281C10.9655 11.2426 10.4626 11.1979 9.9791 11.2997C9.49561 11.4016 9.05351 11.6454 8.70938 12C5.41875 15.3828 3.75 19.3359 3.75 23.75C3.74135 28.267 5.48824 32.6107 8.62188 35.8641C8.73928 35.9868 8.88047 36.0843 9.03682 36.1507C9.19317 36.217 9.3614 36.2508 9.53125 36.25H36.25C36.5325 36.2497 36.8066 36.1537 37.0276 35.9777C37.2486 35.8017 37.4034 35.556 37.4669 35.2807C37.5303 35.0053 37.4986 34.7167 37.3769 34.4617C37.2553 34.2067 37.0508 34.0004 36.7969 33.8766ZM10.4906 13.75L14.4609 15.3594C14.9192 15.5427 15.4092 15.6338 15.9028 15.6273C16.3964 15.6209 16.8838 15.5171 17.3372 15.3218C17.7905 15.1266 18.2009 14.8437 18.5447 14.4895C18.8885 14.1354 19.159 13.7168 19.3406 13.2578L22.6219 4.97656C23.0219 4.02187 24.1016 3.52812 25.0328 3.88281C25.2702 3.9709 25.4873 4.10617 25.6711 4.28045C25.8548 4.45474 26.0013 4.66444 26.1017 4.8969C26.2022 5.12935 26.2545 5.37975 26.2556 5.63298C26.2566 5.88621 26.2064 6.13703 26.1078 6.37031L22.7641 14.65C22.398 15.5736 22.4133 16.6046 22.8068 17.5169C23.2002 18.4291 23.9396 19.148 24.8625 19.5156L28.75 21.0516V23.75C28.75 23.8016 28.75 23.8531 28.75 23.9062L8.71406 15.8922C9.24673 15.1308 9.84091 14.4143 10.4906 13.75ZM17.9906 33.75C16.1296 31.9648 14.8111 29.6898 14.1875 27.1875C14.1006 26.871 13.8927 26.6014 13.6087 26.4369C13.3247 26.2724 12.9874 26.2261 12.6696 26.3082C12.3518 26.3903 12.079 26.594 11.9102 26.8755C11.7414 27.1569 11.69 27.4935 11.7672 27.8125C12.3124 29.9652 13.2883 31.985 14.6359 33.75H10.0688C7.60341 31.0033 6.24296 27.4408 6.25 23.75C6.23471 21.7945 6.64693 19.8592 7.45781 18.0797L28.9891 26.6922C29.4578 29.5047 30.6391 31.9234 32.4094 33.7484L17.9906 33.75Z" fill="#D1EFFF"/>
</svg>
