<svg width="40" height="40" viewBox="0 0 40 40" fill="none" xmlns="http://www.w3.org/2000/svg">
<path d="M33.75 21.25H21.25C20.9185 21.25 20.6005 21.3817 20.3661 21.6161C20.1317 21.8505 20 22.1685 20 22.5V31.4766C19.9997 31.7696 20.1023 32.0534 20.2899 32.2784C20.4776 32.5035 20.7383 32.6554 21.0266 32.7078L33.5266 34.9797C33.6002 34.9935 33.675 35.0003 33.75 35C34.0815 35 34.3995 34.8683 34.6339 34.6339C34.8683 34.3995 35 34.0815 35 33.75V22.5C35 22.1685 34.8683 21.8505 34.6339 21.6161C34.3995 21.3817 34.0815 21.25 33.75 21.25ZM32.5 32.2516L22.5 30.4344V23.75H32.5V32.2516ZM16.25 21.25H6.25C5.91848 21.25 5.60054 21.3817 5.36612 21.6161C5.1317 21.8505 5 22.1685 5 22.5V28.75C5.00004 29.0427 5.10282 29.3262 5.29042 29.5509C5.47802 29.7756 5.73854 29.9274 6.02656 29.9797L16.0266 31.7984C16.1003 31.8115 16.1751 31.8183 16.25 31.8188C16.5815 31.8188 16.8995 31.6871 17.1339 31.4526C17.3683 31.2182 17.5 30.9003 17.5 30.5688V22.5C17.5 22.1685 17.3683 21.8505 17.1339 21.6161C16.8995 21.3817 16.5815 21.25 16.25 21.25ZM15 29.0703L7.5 27.7063V23.75H15V29.0703ZM34.5516 5.29064C34.411 5.17323 34.2463 5.08816 34.0691 5.04145C33.892 4.99473 33.7068 4.98752 33.5266 5.02032L21.0266 7.29376C20.7385 7.34609 20.478 7.49784 20.2904 7.72256C20.1028 7.94728 20 8.23071 20 8.52345V17.5C20 17.8315 20.1317 18.1495 20.3661 18.3839C20.6005 18.6183 20.9185 18.75 21.25 18.75H33.75C34.0815 18.75 34.3995 18.6183 34.6339 18.3839C34.8683 18.1495 35 17.8315 35 17.5V6.25001C35 6.06702 34.9599 5.88626 34.8824 5.72049C34.8049 5.55472 34.692 5.40798 34.5516 5.29064ZM32.5 16.25H22.5V9.56564L32.5 7.74845V16.25ZM17.0516 8.47189C16.911 8.35448 16.7463 8.26941 16.5691 8.2227C16.392 8.17598 16.2068 8.16877 16.0266 8.20157L6.02656 10.0203C5.73854 10.0726 5.47802 10.2244 5.29042 10.4491C5.10282 10.6738 5.00004 10.9573 5 11.25V17.5C5 17.8315 5.1317 18.1495 5.36612 18.3839C5.60054 18.6183 5.91848 18.75 6.25 18.75H16.25C16.5815 18.75 16.8995 18.6183 17.1339 18.3839C17.3683 18.1495 17.5 17.8315 17.5 17.5V9.43126C17.5 9.24827 17.4599 9.06751 17.3824 8.90174C17.3049 8.73597 17.192 8.58923 17.0516 8.47189ZM15 16.25H7.5V12.2938L15 10.9375V16.25Z" fill="#D1EFFF"/>
</svg>
