<svg width="40" height="41" viewBox="0 0 40 41" fill="none" xmlns="http://www.w3.org/2000/svg">
<path d="M35.4312 11.2813C35.3554 11.0939 35.2353 10.9276 35.0811 10.7969C34.9269 10.6661 34.7433 10.5747 34.5461 10.5304C34.3488 10.4862 34.1438 10.4904 33.9485 10.5428C33.7532 10.5952 33.5736 10.6942 33.425 10.8313L27.1281 16.6422L24.4359 16.0641L23.8578 13.3719L29.6687 7.07503C29.8058 6.92642 29.9048 6.74679 29.9572 6.55153C30.0096 6.35627 30.0139 6.15122 29.9696 5.95395C29.9254 5.75668 29.8339 5.57309 29.7032 5.41892C29.5724 5.26475 29.4062 5.1446 29.2187 5.06878C27.5108 4.37789 25.6594 4.11703 23.8271 4.30912C21.9947 4.5012 20.2376 5.14036 18.7101 6.17042C17.1826 7.20048 15.9315 8.58992 15.0666 10.2167C14.2017 11.8434 13.7496 13.6577 13.75 15.5C13.748 17.0558 14.0671 18.5952 14.6875 20.0219L5.27968 28.1563C5.25625 28.175 5.23437 28.1969 5.2125 28.2172C4.27471 29.155 3.74786 30.4269 3.74786 31.7532C3.74786 32.4098 3.87721 33.0601 4.12851 33.6668C4.37981 34.2735 4.74815 34.8247 5.2125 35.2891C5.67684 35.7534 6.2281 36.1218 6.8348 36.3731C7.4415 36.6244 8.09175 36.7537 8.74844 36.7537C10.0747 36.7537 11.3466 36.2269 12.2844 35.2891C12.3047 35.2688 12.3266 35.2453 12.3453 35.2235L20.4781 25.8125C22.1913 26.5646 24.065 26.8774 25.9295 26.7228C27.7941 26.5683 29.5907 25.9511 31.1566 24.9272C32.7225 23.9033 34.0084 22.505 34.8977 20.8589C35.7871 19.2129 36.2519 17.371 36.25 15.5C36.2524 14.0541 35.9744 12.6214 35.4312 11.2813ZM25 24.25C23.5204 24.248 22.0654 23.8717 20.7703 23.1563C20.5194 23.0177 20.2285 22.9695 19.9463 23.0199C19.6641 23.0702 19.4078 23.216 19.2203 23.4328L10.4859 33.5485C10.0133 33.9975 9.3839 34.2442 8.732 34.2358C8.0801 34.2275 7.45724 33.9648 6.99624 33.5038C6.53524 33.0428 6.27256 32.4199 6.26421 31.768C6.25586 31.1161 6.50251 30.4867 6.95156 30.0141L17.0594 21.2813C17.2766 21.0937 17.4226 20.8371 17.473 20.5546C17.5233 20.272 17.475 19.9808 17.3359 19.7297C16.5391 18.2885 16.1652 16.6517 16.2571 15.0075C16.349 13.3633 16.9031 11.7783 17.8556 10.435C18.8081 9.09156 20.1203 8.04424 21.6415 7.41338C23.1627 6.78253 24.831 6.59376 26.4547 6.86878L21.5797 12.1516C21.444 12.2987 21.3457 12.4763 21.293 12.6693C21.2402 12.8624 21.2346 13.0653 21.2766 13.261L22.1609 17.375C22.2115 17.6103 22.329 17.826 22.4991 17.9962C22.6693 18.1664 22.885 18.2838 23.1203 18.3344L27.2375 19.2188C27.4332 19.2607 27.6361 19.2551 27.8291 19.2024C28.0222 19.1496 28.1997 19.0513 28.3469 18.9157L33.6297 14.0407C33.8403 15.2954 33.775 16.5809 33.4385 17.8078C33.1019 19.0347 32.5022 20.1736 31.6809 21.1453C30.8596 22.1169 29.8365 22.898 28.6827 23.4342C27.529 23.9703 26.2722 24.2487 25 24.25Z" fill="#D1EFFF"/>
</svg>
