<svg width="40" height="41" viewBox="0 0 40 41" fill="none" xmlns="http://www.w3.org/2000/svg">
<path d="M21.25 13V19.7922L26.8938 23.1781C27.178 23.3489 27.3828 23.6255 27.4631 23.9473C27.5434 24.269 27.4926 24.6095 27.3219 24.8937C27.1511 25.178 26.8745 25.3828 26.5527 25.4631C26.231 25.5434 25.8905 25.4926 25.6063 25.3219L19.3563 21.5719C19.1713 21.4607 19.0182 21.3036 18.912 21.1158C18.8057 20.9279 18.7499 20.7158 18.75 20.5V13C18.75 12.6685 18.8817 12.3505 19.1161 12.1161C19.3505 11.8817 19.6685 11.75 20 11.75C20.3315 11.75 20.6495 11.8817 20.8839 12.1161C21.1183 12.3505 21.25 12.6685 21.25 13ZM35 9.24999C34.6685 9.24999 34.3505 9.38169 34.1161 9.61611C33.8817 9.85053 33.75 10.1685 33.75 10.5V13.3125C32.7578 12.1625 31.7453 11.0547 30.6063 9.90155C28.5216 7.81672 25.8689 6.39243 22.9794 5.80664C20.09 5.22085 17.092 5.49955 14.36 6.60791C11.628 7.71627 9.28324 9.60513 7.61865 12.0385C5.95406 14.4719 5.04347 17.3418 5.00065 20.2897C4.95784 23.2377 5.78469 26.1328 7.37791 28.6135C8.97113 31.0942 11.2601 33.0504 13.9587 34.2376C16.6573 35.4248 19.646 35.7905 22.5512 35.2889C25.4565 34.7872 28.1495 33.4406 30.2938 31.4172C30.4132 31.3043 30.5092 31.1691 30.5763 31.0191C30.6435 30.8691 30.6804 30.7074 30.6851 30.5432C30.6897 30.3789 30.662 30.2154 30.6034 30.0618C30.5448 29.9083 30.4566 29.7679 30.3438 29.6484C30.2309 29.529 30.0956 29.433 29.9457 29.3658C29.7957 29.2987 29.634 29.2618 29.4697 29.2571C29.3055 29.2525 29.1419 29.2802 28.9884 29.3388C28.8349 29.3973 28.6944 29.4856 28.575 29.5984C26.7876 31.2829 24.5435 32.4035 22.123 32.8203C19.7025 33.237 17.2129 32.9315 14.965 31.9418C12.7172 30.952 10.8107 29.3221 9.48362 27.2553C8.15658 25.1886 7.4678 22.7767 7.50331 20.3208C7.53881 17.865 8.29701 15.474 9.68324 13.4465C11.0695 11.419 13.0223 9.8448 15.2978 8.92048C17.5734 7.99616 20.0708 7.7627 22.4782 8.24925C24.8856 8.73579 27.0964 9.92078 28.8344 11.6562C30.1063 12.9437 31.2203 14.1844 32.3438 15.5H28.75C28.4185 15.5 28.1005 15.6317 27.8661 15.8661C27.6317 16.1005 27.5 16.4185 27.5 16.75C27.5 17.0815 27.6317 17.3995 27.8661 17.6339C28.1005 17.8683 28.4185 18 28.75 18H35C35.3315 18 35.6495 17.8683 35.8839 17.6339C36.1183 17.3995 36.25 17.0815 36.25 16.75V10.5C36.25 10.1685 36.1183 9.85053 35.8839 9.61611C35.6495 9.38169 35.3315 9.24999 35 9.24999Z" fill="#D1EFFF"/>
</svg>
