<svg width="40" height="40" viewBox="0 0 40 40" fill="none" xmlns="http://www.w3.org/2000/svg">
<path d="M21.25 16.875C21.25 16.0097 20.9934 15.1638 20.5127 14.4444C20.0319 13.7249 19.3487 13.1642 18.5492 12.833C17.7498 12.5019 16.8701 12.4153 16.0215 12.5841C15.1728 12.7529 14.3933 13.1696 13.7814 13.7814C13.1696 14.3933 12.7529 15.1728 12.5841 16.0215C12.4153 16.8701 12.5019 17.7498 12.833 18.5492C13.1642 19.3487 13.7249 20.0319 14.4444 20.5127C15.1638 20.9934 16.0097 21.25 16.875 21.25C18.0353 21.25 19.1481 20.7891 19.9686 19.9686C20.7891 19.1481 21.25 18.0353 21.25 16.875ZM16.875 18.75C16.5042 18.75 16.1416 18.64 15.8333 18.434C15.525 18.228 15.2846 17.9351 15.1427 17.5925C15.0008 17.2499 14.9637 16.8729 15.036 16.5092C15.1084 16.1455 15.287 15.8114 15.5492 15.5492C15.8114 15.287 16.1455 15.1084 16.5092 15.036C16.8729 14.9637 17.2499 15.0008 17.5925 15.1427C17.9351 15.2846 18.228 15.525 18.434 15.8333C18.64 16.1416 18.75 16.5042 18.75 16.875C18.75 17.3723 18.5525 17.8492 18.2008 18.2008C17.8492 18.5525 17.3723 18.75 16.875 18.75ZM27.5 17.5C27.9945 17.5 28.4778 17.6466 28.8889 17.9213C29.3001 18.196 29.6205 18.5865 29.8097 19.0433C29.9989 19.5001 30.0484 20.0028 29.952 20.4877C29.8555 20.9727 29.6174 21.4181 29.2678 21.7678C28.9181 22.1174 28.4727 22.3555 27.9877 22.452C27.5028 22.5484 27.0001 22.4989 26.5433 22.3097C26.0865 22.1205 25.696 21.8001 25.4213 21.3889C25.1466 20.9778 25 20.4945 25 20C25 19.337 25.2634 18.7011 25.7322 18.2322C26.2011 17.7634 26.837 17.5 27.5 17.5ZM22.5 27.5C22.5 27.9945 22.3534 28.4778 22.0787 28.8889C21.804 29.3001 21.4135 29.6205 20.9567 29.8097C20.4999 29.9989 19.9972 30.0484 19.5123 29.952C19.0273 29.8555 18.5819 29.6174 18.2322 29.2678C17.8826 28.9181 17.6445 28.4727 17.548 27.9877C17.4516 27.5028 17.5011 27.0001 17.6903 26.5433C17.8795 26.0865 18.2 25.696 18.6111 25.4213C19.0222 25.1466 19.5055 25 20 25C20.663 25 21.2989 25.2634 21.7678 25.7322C22.2366 26.2011 22.5 26.837 22.5 27.5ZM37.5 18.75H34.9469C34.6896 15.6437 33.4662 12.696 31.4484 10.3203L33.3844 8.38438C33.6189 8.14982 33.7507 7.8317 33.7507 7.5C33.7507 7.1683 33.6189 6.85018 33.3844 6.61562C33.1498 6.38107 32.8317 6.2493 32.5 6.2493C32.1683 6.2493 31.8502 6.38107 31.6156 6.61562L29.6875 8.55156C27.3097 6.53231 24.359 5.30885 21.25 5.05312V2.5C21.25 2.16848 21.1183 1.85054 20.8839 1.61612C20.6495 1.3817 20.3315 1.25 20 1.25C19.6685 1.25 19.3505 1.3817 19.1161 1.61612C18.8817 1.85054 18.75 2.16848 18.75 2.5V5.05312C15.6437 5.31044 12.696 6.53381 10.3203 8.55156L8.38438 6.61562C8.14982 6.38107 7.8317 6.2493 7.5 6.2493C7.1683 6.2493 6.85018 6.38107 6.61562 6.61562C6.38107 6.85018 6.2493 7.1683 6.2493 7.5C6.2493 7.8317 6.38107 8.14982 6.61562 8.38438L8.55156 10.3203C6.53231 12.6981 5.30885 15.6488 5.05312 18.7578H2.5C2.16848 18.7578 1.85054 18.8895 1.61612 19.1239C1.3817 19.3583 1.25 19.6763 1.25 20.0078C1.25 20.3393 1.3817 20.6573 1.61612 20.8917C1.85054 21.1261 2.16848 21.2578 2.5 21.2578H5.05312C5.31044 24.3641 6.53381 27.3118 8.55156 29.6875L6.61562 31.6156C6.38107 31.8502 6.2493 32.1683 6.2493 32.5C6.2493 32.8317 6.38107 33.1498 6.61562 33.3844C6.85018 33.6189 7.1683 33.7507 7.5 33.7507C7.8317 33.7507 8.14982 33.6189 8.38438 33.3844L10.3203 31.4484C12.6981 33.4677 15.6488 34.6912 18.7578 34.9469V37.5C18.7578 37.8315 18.8895 38.1495 19.1239 38.3839C19.3583 38.6183 19.6763 38.75 20.0078 38.75C20.3393 38.75 20.6573 38.6183 20.8917 38.3839C21.1261 38.1495 21.2578 37.8315 21.2578 37.5V34.9469C24.3641 34.6896 27.3118 33.4662 29.6875 31.4484L31.6234 33.3844C31.858 33.6189 32.1761 33.7507 32.5078 33.7507C32.8395 33.7507 33.1576 33.6189 33.3922 33.3844C33.6267 33.1498 33.7585 32.8317 33.7585 32.5C33.7585 32.1683 33.6267 31.8502 33.3922 31.6156L31.4484 29.6875C33.4677 27.3097 34.6912 24.359 34.9469 21.25H37.5C37.8315 21.25 38.1495 21.1183 38.3839 20.8839C38.6183 20.6495 38.75 20.3315 38.75 20C38.75 19.6685 38.6183 19.3505 38.3839 19.1161C38.1495 18.8817 37.8315 18.75 37.5 18.75ZM20 32.5C17.5277 32.5 15.111 31.7669 13.0554 30.3934C10.9998 29.0199 9.3976 27.0676 8.45151 24.7835C7.50541 22.4995 7.25787 19.9861 7.74018 17.5614C8.2225 15.1366 9.41301 12.9093 11.1612 11.1612C12.9093 9.41301 15.1366 8.2225 17.5614 7.74018C19.9861 7.25787 22.4995 7.50541 24.7835 8.45151C27.0676 9.3976 29.0199 10.9998 30.3934 13.0554C31.7669 15.111 32.5 17.5277 32.5 20C32.4963 23.3141 31.1781 26.4913 28.8347 28.8347C26.4913 31.1781 23.3141 32.4963 20 32.5Z" fill="#D1EFFF"/>
</svg>
