<svg width="41" height="40" viewBox="0 0 41 40" fill="none" xmlns="http://www.w3.org/2000/svg">
<path d="M24.25 15H16.75C16.4185 15 16.1005 15.1317 15.8661 15.3661C15.6317 15.6005 15.5 15.9185 15.5 16.25V23.75C15.5 24.0815 15.6317 24.3995 15.8661 24.6339C16.1005 24.8683 16.4185 25 16.75 25H24.25C24.5815 25 24.8995 24.8683 25.1339 24.6339C25.3683 24.3995 25.5 24.0815 25.5 23.75V16.25C25.5 15.9185 25.3683 15.6005 25.1339 15.3661C24.8995 15.1317 24.5815 15 24.25 15ZM23 22.5H18V17.5H23V22.5ZM36.75 22.5H34.25V17.5H36.75C37.0815 17.5 37.3995 17.3683 37.6339 17.1339C37.8683 16.8995 38 16.5815 38 16.25C38 15.9185 37.8683 15.6005 37.6339 15.3661C37.3995 15.1317 37.0815 15 36.75 15H34.25V8.75C34.25 8.08696 33.9866 7.45107 33.5178 6.98223C33.0489 6.51339 32.413 6.25 31.75 6.25H25.5V3.75C25.5 3.41848 25.3683 3.10054 25.1339 2.86612C24.8995 2.6317 24.5815 2.5 24.25 2.5C23.9185 2.5 23.6005 2.6317 23.3661 2.86612C23.1317 3.10054 23 3.41848 23 3.75V6.25H18V3.75C18 3.41848 17.8683 3.10054 17.6339 2.86612C17.3995 2.6317 17.0815 2.5 16.75 2.5C16.4185 2.5 16.1005 2.6317 15.8661 2.86612C15.6317 3.10054 15.5 3.41848 15.5 3.75V6.25H9.25C8.58696 6.25 7.95107 6.51339 7.48223 6.98223C7.01339 7.45107 6.75 8.08696 6.75 8.75V15H4.25C3.91848 15 3.60054 15.1317 3.36612 15.3661C3.1317 15.6005 3 15.9185 3 16.25C3 16.5815 3.1317 16.8995 3.36612 17.1339C3.60054 17.3683 3.91848 17.5 4.25 17.5H6.75V22.5H4.25C3.91848 22.5 3.60054 22.6317 3.36612 22.8661C3.1317 23.1005 3 23.4185 3 23.75C3 24.0815 3.1317 24.3995 3.36612 24.6339C3.60054 24.8683 3.91848 25 4.25 25H6.75V31.25C6.75 31.913 7.01339 32.5489 7.48223 33.0178C7.95107 33.4866 8.58696 33.75 9.25 33.75H15.5V36.25C15.5 36.5815 15.6317 36.8995 15.8661 37.1339C16.1005 37.3683 16.4185 37.5 16.75 37.5C17.0815 37.5 17.3995 37.3683 17.6339 37.1339C17.8683 36.8995 18 36.5815 18 36.25V33.75H23V36.25C23 36.5815 23.1317 36.8995 23.3661 37.1339C23.6005 37.3683 23.9185 37.5 24.25 37.5C24.5815 37.5 24.8995 37.3683 25.1339 37.1339C25.3683 36.8995 25.5 36.5815 25.5 36.25V33.75H31.75C32.413 33.75 33.0489 33.4866 33.5178 33.0178C33.9866 32.5489 34.25 31.913 34.25 31.25V25H36.75C37.0815 25 37.3995 24.8683 37.6339 24.6339C37.8683 24.3995 38 24.0815 38 23.75C38 23.4185 37.8683 23.1005 37.6339 22.8661C37.3995 22.6317 37.0815 22.5 36.75 22.5ZM31.75 31.25H9.25V8.75H31.75V23.7297C31.75 23.7297 31.75 23.7437 31.75 23.75C31.75 23.7563 31.75 23.7641 31.75 23.7703V31.25Z" fill="#D1EFFF"/>
</svg>
