<svg width="41" height="40" viewBox="0 0 41 40" fill="none" xmlns="http://www.w3.org/2000/svg">
<g clip-path="url(#clip0_120_192)">
<path d="M26.125 26.25C27.1605 26.25 28 25.4105 28 24.375C28 23.3395 27.1605 22.5 26.125 22.5C25.0895 22.5 24.25 23.3395 24.25 24.375C24.25 25.4105 25.0895 26.25 26.125 26.25Z" fill="#D1EFFF"/>
<path d="M14.875 26.25C15.9105 26.25 16.75 25.4105 16.75 24.375C16.75 23.3395 15.9105 22.5 14.875 22.5C13.8395 22.5 13 23.3395 13 24.375C13 25.4105 13.8395 26.25 14.875 26.25Z" fill="#D1EFFF"/>
<path d="M4.25 30V26.4265C4.25 17.4453 11.4609 10.0312 20.4422 9.99998C22.581 9.99237 24.7003 10.4071 26.6785 11.2203C28.6568 12.0335 30.455 13.2293 31.9701 14.739C33.4851 16.2487 34.6873 18.0427 35.5075 20.018C36.3278 21.9933 36.75 24.1111 36.75 26.25V30C36.75 30.3315 36.6183 30.6494 36.3839 30.8839C36.1495 31.1183 35.8315 31.25 35.5 31.25H5.5C5.16848 31.25 4.85054 31.1183 4.61612 30.8839C4.3817 30.6494 4.25 30.3315 4.25 30Z" stroke="#D1EFFF" stroke-width="2" stroke-linecap="round" stroke-linejoin="round"/>
<path d="M5.5 8.75L10.3547 13.6047" stroke="#D1EFFF" stroke-width="2" stroke-linecap="round" stroke-linejoin="round"/>
<path d="M35.5 8.75L30.6719 13.5781" stroke="#D1EFFF" stroke-width="2" stroke-linecap="round" stroke-linejoin="round"/>
</g>
<defs>
<clipPath id="clip0_120_192">
<rect width="40" height="40" fill="white" transform="translate(0.5)"/>
</clipPath>
</defs>
</svg>
