<svg width="19" height="19" viewBox="0 0 19 19" fill="none" xmlns="http://www.w3.org/2000/svg">
<path d="M17.9511 16.9457C18.0347 17.0294 18.101 17.1286 18.1463 17.2379C18.1916 17.3471 18.2148 17.4642 18.2148 17.5825C18.2148 17.7007 18.1916 17.8178 18.1463 17.927C18.101 18.0363 18.0347 18.1356 17.9511 18.2192C17.8675 18.3028 17.7682 18.3691 17.659 18.4144C17.5497 18.4596 17.4326 18.4829 17.3144 18.4829C17.1961 18.4829 17.0791 18.4596 16.9698 18.4144C16.8606 18.3691 16.7613 18.3028 16.6777 18.2192L9.21484 10.7552L1.75201 18.2192C1.58314 18.388 1.35411 18.4829 1.11529 18.4829C0.87648 18.4829 0.647447 18.388 0.478579 18.2192C0.309712 18.0503 0.214844 17.8213 0.214844 17.5825C0.214844 17.3436 0.309712 17.1146 0.478579 16.9457L7.94254 9.48291L0.478579 2.02007C0.309712 1.85121 0.214844 1.62217 0.214844 1.38336C0.214844 1.14455 0.309712 0.915513 0.478579 0.746646C0.647447 0.577779 0.87648 0.48291 1.11529 0.48291C1.35411 0.48291 1.58314 0.577779 1.75201 0.746646L9.21484 8.21061L16.6777 0.746646C16.8465 0.577779 17.0756 0.48291 17.3144 0.48291C17.5532 0.48291 17.7822 0.577779 17.9511 0.746646C18.12 0.915513 18.2148 1.14455 18.2148 1.38336C18.2148 1.62217 18.12 1.85121 17.9511 2.02007L10.4871 9.48291L17.9511 16.9457Z" fill="#F0F9FF"/>
</svg>
