<svg width="21" height="20" viewBox="0 0 21 20" fill="none" xmlns="http://www.w3.org/2000/svg">
<path d="M14.6018 11.6667C14.4351 11.5834 13.3518 11.0834 13.1851 11C13.0185 10.9167 12.8518 10.9167 12.6851 11.0834C12.5185 11.25 12.1851 11.75 12.0185 11.9167C11.9351 12.0834 11.7685 12.0834 11.6018 12C11.0185 11.75 10.4351 11.4167 9.93512 11C9.51845 10.5834 9.10179 10.0834 8.76845 9.58337C8.68512 9.41671 8.76845 9.25004 8.85179 9.16671C8.93512 9.08337 9.01845 8.91671 9.18512 8.83337C9.26845 8.75004 9.35179 8.58337 9.35179 8.50004C9.43512 8.41671 9.43512 8.25004 9.35179 8.16671C9.26845 8.08337 8.85179 7.08337 8.68512 6.66671C8.60179 6.08337 8.43512 6.08337 8.26845 6.08337C8.18512 6.08337 8.01845 6.08337 7.85179 6.08337C7.68512 6.08337 7.43512 6.25004 7.35179 6.33337C6.85179 6.83337 6.60179 7.41671 6.60179 8.08337C6.68512 8.83337 6.93512 9.58337 7.43512 10.25C8.35179 11.5834 9.51845 12.6667 10.9351 13.3334C11.3518 13.5 11.6851 13.6667 12.1018 13.75C12.5185 13.9167 12.9351 13.9167 13.4351 13.8334C14.0185 13.75 14.5185 13.3334 14.8518 12.8334C15.0185 12.5 15.0185 12.1667 14.9351 11.8334C14.9351 11.8334 14.7685 11.75 14.6018 11.6667ZM16.6851 4.08337C13.4351 0.833374 8.18512 0.833374 4.93512 4.08337C2.26845 6.75004 1.76845 10.8334 3.60179 14.0834L2.43512 18.3334L6.85179 17.1667C8.10179 17.8334 9.43512 18.1667 10.7685 18.1667C15.3518 18.1667 19.0185 14.5 19.0185 9.91671C19.1018 7.75004 18.1851 5.66671 16.6851 4.08337ZM14.4351 15.75C13.3518 16.4167 12.1018 16.8334 10.7685 16.8334C9.51845 16.8334 8.35179 16.5 7.26845 15.9167L7.01845 15.75L4.43512 16.4167L5.10179 13.9167L4.93512 13.6667C2.93512 10.3334 3.93512 6.16671 7.18512 4.08337C10.4351 2.00004 14.6018 3.08337 16.6018 6.25004C18.6018 9.50004 17.6851 13.75 14.4351 15.75Z" fill="white"/>
</svg>
