<svg width="136" height="46" viewBox="0 0 136 46" fill="none" xmlns="http://www.w3.org/2000/svg">
<g clip-path="url(#clip0_19_21)">
<path d="M135.665 11.1216C133.822 0.539128 102.026 -2.76335 64.6425 3.74507C48.9429 6.47981 34.7669 10.5134 23.7274 15.0513C25.4232 15.0884 26.6808 15.4772 27.445 16.2394C28.0425 16.8375 28.3442 17.6584 28.3442 18.6812V19.7309H24.6786V18.804C24.6786 18.0317 24.2155 17.5531 23.3952 17.5531C22.706 17.5531 22.2814 17.8643 22.1443 18.4773C22.0984 18.7196 22.1034 18.9688 22.1592 19.2091C22.5514 20.8124 27.9945 21.8081 28.5866 24.767C28.6642 25.1477 28.7695 25.9626 28.6035 27.1284C28.2639 29.5148 26.1671 30.4356 23.4978 30.4356C19.7721 30.4356 18.2586 28.671 18.2586 26.238L18.2613 25.087H22.1909L22.1929 26.5208C22.1929 27.3269 22.7789 27.7718 23.5768 27.7718C24.3329 27.7718 24.7744 27.4673 24.927 26.8449C24.9979 26.5586 25.0289 26.1367 24.9 25.814C24.1729 23.99 19.0903 23.138 18.4645 20.1886C18.3247 19.5257 18.3132 18.9613 18.4294 18.2478C18.4889 17.8941 18.5985 17.5506 18.7547 17.2277C6.50951 22.9544 -0.653737 29.2556 0.292722 34.696C2.13771 45.2799 33.9339 48.579 71.3163 42.0706C87.749 39.2103 102.522 34.9283 113.766 30.1298C113.603 30.1379 113.445 30.1555 113.276 30.1555C110.718 30.1555 108.433 29.1969 108.196 26.5816C108.155 26.1057 108.147 25.9065 108.146 25.6351L108.147 19.6229C108.147 19.3637 108.178 18.9087 108.207 18.6737C108.51 16.1462 110.508 15.1039 113.278 15.1039C115.421 15.1039 118.049 15.7189 118.338 18.6758C118.377 19.0471 118.373 19.4433 118.372 19.5736V20.1414H114.67V19.2941C114.67 19.2759 114.664 18.9593 114.624 18.7615C114.563 18.4597 114.306 17.7604 113.251 17.7604C112.21 17.7604 111.94 18.4611 111.872 18.7622C111.834 18.9276 111.816 19.1652 111.816 19.4285V25.9626C111.812 26.1894 111.824 26.3669 111.847 26.4972C111.865 26.5998 112.052 27.5004 113.264 27.5004C114.468 27.5004 114.654 26.5998 114.671 26.4972C114.703 26.3203 114.707 26.1097 114.706 25.9626V23.938H113.249V21.7575H118.4V25.6365C118.399 25.9004 118.395 26.0955 118.35 26.5816C118.288 27.2675 118.072 27.848 117.733 28.3442C129.657 22.6824 136.6 16.4831 135.665 11.1216ZM38.7323 29.8773L36.857 17.1346H36.7894L34.8661 29.8773H30.9136L33.572 15.4867H40.021L42.6633 29.8773H38.7323ZM57.7439 29.8773L57.6568 17.381H57.5933L55.2677 29.8773H51.5581L49.244 17.381H49.1778L49.0934 29.8773H45.4176L45.7363 15.4867H51.6486L53.37 26.1766H53.4544L55.1806 15.4867H61.0902L61.4075 29.8773H57.7439ZM75.0535 27.0886C74.6579 29.876 71.9272 30.3634 69.9972 30.3634C66.7926 30.3634 64.8106 28.9937 64.8106 26.2063L64.8126 25.0694H68.695L68.6977 26.4857C68.6977 27.2547 69.2398 27.7252 70.0769 27.7252C70.8235 27.7252 71.2609 27.4254 71.4128 26.8098C71.483 26.5229 71.5121 26.1043 71.3879 25.7884C70.6723 23.9988 65.6294 23.1218 65.0165 20.2183C64.8761 19.5601 64.8659 19.0012 64.9814 18.295C65.408 15.6629 67.9342 15.1161 69.9675 15.1161C71.7861 15.1161 73.11 15.513 73.9039 16.3069C74.4959 16.8996 74.7956 17.7131 74.7956 18.725V19.7633H71.1651V18.8472C71.1651 18.0628 70.6783 17.6091 69.8959 17.6091C69.202 17.6091 68.7821 17.9177 68.6443 18.5245C68.5996 18.7644 68.6056 19.0109 68.6619 19.2482C69.0507 20.8441 74.446 21.8196 75.0367 24.7508C75.1129 25.1248 75.2176 25.9275 75.0535 27.0886ZM88.4997 25.781C88.5051 26.051 88.4788 26.5904 88.4639 26.7288C88.2425 29.0996 86.5467 30.3047 83.4366 30.3047C80.3144 30.3047 78.6173 29.0996 78.3972 26.7288C78.3722 26.4144 78.3603 26.0991 78.3614 25.7837V15.4833H82.0757V26.1084C82.0716 26.346 82.0838 26.5215 82.1074 26.6437C82.1533 26.88 82.3882 27.6469 83.4366 27.6469C84.4817 27.6469 84.7166 26.8793 84.7659 26.6464C84.7868 26.5208 84.7996 26.3365 84.7996 26.1077V15.4833H88.4997V25.781ZM104.502 29.7308H99.334L95.8648 18.3322H95.8068L95.9992 29.7308H92.3969V15.4867H97.782L100.989 26.4365H101.064L100.874 15.4867H104.502V29.7308Z" fill="#1971C2"/>
</g>
<defs>
<clipPath id="clip0_19_21">
<rect width="135.542" height="45" fill="white" transform="translate(0.207825 0.408203)"/>
</clipPath>
</defs>
</svg>
