<svg width="151" height="27" viewBox="0 0 151 27" fill="none" xmlns="http://www.w3.org/2000/svg">
<g clip-path="url(#clip0_1_160)">
<path d="M53.6779 26.7631C48.22 26.7631 43.1535 25.1263 39.7716 22.0908C37.2166 19.7975 35.9889 16.6825 35.9889 13.4764C35.9889 10.3093 37.2696 7.17283 39.7713 4.89162C42.9121 2.02922 48.4572 0.236633 53.6779 0.236633C59.4553 0.236633 64.0795 1.69188 67.6144 4.89949C70.1295 7.1819 71.3454 10.3045 71.3454 13.4767C71.3454 16.5515 70.0551 19.8259 67.6144 22.0908C64.3227 25.1459 59.1498 26.7631 53.6779 26.7631V23.2644C56.5748 23.2644 59.262 22.2642 61.1387 20.3969C63.0024 18.5422 63.8707 16.2626 63.8707 13.4764C63.8707 10.8073 62.934 8.31192 61.1387 6.54202C59.2871 4.71826 56.5358 3.69202 53.6779 3.69202C50.8113 3.69202 48.0581 4.70767 46.205 6.54202C44.4194 8.31131 43.4803 10.814 43.4803 13.4764C43.4803 16.1306 44.4303 18.6318 46.205 20.3972C48.0596 22.2421 50.8031 23.2644 53.6779 23.2644V26.7631ZM13.7859 0.24934C10.8663 0.24934 7.54947 0.795438 4.73124 2.05403C2.13024 3.2146 0.00122132 5.09161 0.00122132 8.2033C1.11314e-05 11.0058 1.78111 12.6471 1.7327 12.6017C2.49028 13.2991 3.70984 14.4866 6.89839 15.184C8.32338 15.4956 11.37 15.9742 14.404 16.2913C17.4155 16.609 20.3793 16.9109 21.5864 17.2165C22.5455 17.4606 24.1566 17.7931 24.1566 19.6006C24.1566 21.4007 22.4593 21.9501 22.1643 22.0693C21.8696 22.1858 19.8335 23.1201 16.1733 23.1201C13.4709 23.1201 10.2222 22.3074 9.038 21.8839C7.67291 21.398 6.24095 20.7554 4.90521 19.1237C4.57301 18.7192 4.049 17.6068 4.049 16.5052H0.736411V25.7873H4.41841V24.5333C4.41841 24.3905 4.59691 23.8032 5.21501 24.0825C5.98409 24.4319 8.2417 25.3308 10.6022 25.8236C12.5376 26.2284 13.7856 26.5186 16.1917 26.5186C20.1176 26.5186 22.2266 25.879 23.6846 25.4627C25.0582 25.0694 26.7555 24.3632 28.1342 23.2638C28.8808 22.6693 30.5182 21.1454 30.5182 18.3792C30.5182 15.724 29.0932 14.076 28.5919 13.5747C27.9091 12.8916 27.0749 12.3621 26.2057 11.954C25.4485 11.5976 24.2534 11.1695 23.2756 10.9302C21.3777 10.4642 17.0864 9.8894 15.0342 9.67459C12.8822 9.4498 9.14903 9.14059 7.65808 8.67921C7.20608 8.53913 6.28452 8.10013 6.28452 7.03033C6.28452 6.26942 6.70597 5.62439 7.53888 5.1031C8.86101 4.27473 11.5316 3.75979 14.3153 3.75979C17.6064 3.74769 20.3935 4.50013 22.1664 5.2928C22.7694 5.56207 23.4749 5.94872 24.0353 6.40617C24.6676 6.92171 25.5553 7.99303 25.8763 9.48731H28.8503V1.40749H25.5295V2.3466C25.5295 2.64975 25.2164 3.04366 24.6243 2.71812C23.1382 1.93846 18.9364 0.256299 13.7853 0.24934M86.5587 1.7176L102.758 16.3367L102.591 6.49391C102.575 5.20325 102.337 4.66441 100.941 4.66441H97.8955V1.72002H111.746V4.66441H108.775C107.351 4.66441 107.261 5.11974 107.244 6.49391L107.495 25.3011H102.752L84.0939 8.64895L84.0978 20.467C84.1141 21.7517 84.1743 22.3568 85.498 22.3568H88.8245V25.2999H75.222V22.3571H78.4017C79.5895 22.3571 79.5424 21.2246 79.5424 20.4002V6.60585C79.5424 5.71546 79.4174 4.66653 77.5525 4.66653H74.9724V1.7176H86.5587ZM127.573 22.3513C127.703 22.3513 128.281 22.3347 128.393 22.3005C128.534 22.2579 128.664 22.1853 128.774 22.0876C128.884 21.9899 128.971 21.8695 129.03 21.7347C129.073 21.6349 129.094 21.1932 129.094 21.0972L129.096 16.4441C129.096 16.3321 129.088 16.2837 128.898 16.0344C128.689 15.7621 120.413 6.38318 120.034 5.9702C119.564 5.45739 118.738 4.66471 117.483 4.66471H114.605V1.71911H130.848V4.66108H128.89C128.437 4.66108 128.136 5.0907 128.523 5.56812C128.523 5.56812 133.988 12.1053 134.039 12.1736C134.09 12.2432 134.134 12.2599 134.203 12.1963C134.272 12.1313 139.805 5.62802 139.849 5.57659C140.112 5.26133 139.933 4.66441 139.366 4.66441H137.358V1.71911H150.67V4.66441H147.696C146.617 4.66441 146.178 4.86409 145.366 5.78171C144.995 6.20165 136.63 15.7491 136.403 16.0078C136.284 16.143 136.294 16.3315 136.294 16.4435V21.096C136.294 21.1904 136.315 21.6328 136.357 21.732C136.416 21.867 136.504 21.9876 136.614 22.0853C136.724 22.183 136.855 22.2555 136.996 22.2978C137.108 22.3322 137.678 22.3492 137.807 22.3492H140.85V25.2942H124.691V22.3489L127.574 22.3513H127.573Z" fill="#1971C2"/>
</g>
<defs>
<clipPath id="clip0_1_160">
<rect width="150.67" height="27" fill="white"/>
</clipPath>
</defs>
</svg>
