<svg width="144" height="62" viewBox="0 0 144 62" fill="none" xmlns="http://www.w3.org/2000/svg">
<g clip-path="url(#clip0_19_18)">
<path fill-rule="evenodd" clip-rule="evenodd" d="M22.8535 42.3852V28.5416C22.8535 28.3837 23.0114 28.2258 23.1693 28.2258H28.5433C28.7011 28.2258 28.859 28.3837 28.859 28.5416V42.3852C28.859 42.5988 28.6671 42.7319 28.4473 42.7319H23.2652C23.0455 42.7319 22.8535 42.5988 22.8535 42.3852ZM34.0844 0H34.2021C34.4745 0.00309562 34.7097 0.0309562 35.0193 0.0309562C35.1772 0.0309562 35.3381 0.0278605 35.496 0.0309562C35.6787 0.0340518 35.7344 0.0650079 35.9356 0.0650079C36.0904 0.0650079 36.2575 0.0588167 36.4123 0.0619123C36.5764 0.0681035 36.629 0.0959641 36.8209 0.0959641C37.1398 0.0959641 37.4153 0.108347 37.7372 0.12692L38.5885 0.191928C39.0003 0.195024 39.8639 0.278605 40.2911 0.321944C42.4085 0.544828 44.5693 0.820338 46.5907 1.41779C46.8446 1.49209 47.0705 1.54781 47.3244 1.63139C48.0116 1.85427 48.6957 2.08335 49.3582 2.34648C49.804 2.52293 50.2095 2.73962 50.6491 2.91917C51.0639 3.08942 51.4508 3.34326 51.844 3.55996C52.2526 3.78284 52.6086 4.0243 52.9893 4.27814L54.5681 5.47924C54.9953 5.81357 56.0788 6.85369 56.4317 7.31184L56.8527 7.80714C57.6916 8.86584 58.4222 9.9555 59.0382 11.1845C59.6852 12.4753 60.1774 13.8157 60.5829 15.2026C61.2144 17.3633 61.4373 19.2516 61.7159 21.465L62.0409 27.1455C62.0378 27.5881 61.9976 28.0989 62.044 28.5323C62.109 29.1081 62.0905 32.733 62.0409 33.3429C62.0038 33.7979 62.0409 34.3025 62.0409 34.7638C62.0409 34.9588 62.0069 35.0083 62.0069 35.2033L61.9759 36.5964C61.9759 36.7914 61.9419 36.8409 61.9419 37.0359C61.9419 37.6303 61.8552 38.9769 61.7809 39.6858L61.4961 42.2149C61.2299 44.0816 60.8615 45.8461 60.2981 47.6199C59.6697 49.5949 58.7255 51.5853 57.4811 53.2415C57.4068 53.3436 57.3604 53.4148 57.283 53.517C56.8155 54.133 56.3078 54.7336 55.7599 55.2815C55.2868 55.7583 54.7898 56.2108 54.2709 56.6374L53.7571 57.0398C53.3051 57.3772 52.8377 57.7147 52.3486 58.0025L51.4632 58.5071C51.3456 58.569 51.2837 58.6124 51.1567 58.6774C49.6616 59.4172 49.0641 59.6277 47.4637 60.1695C46.9962 60.3274 46.5071 60.445 46.0025 60.5719C41.3034 61.7482 35.561 61.8163 30.0539 61.8163C25.0731 61.8163 20.213 61.5532 16.2351 60.5595C14.6904 60.1726 12.5018 59.4668 11.0561 58.6279C10.9602 58.5721 10.8673 58.5381 10.7621 58.4793C9.38141 57.7085 8.93564 57.3339 7.81812 56.4609C7.75311 56.4114 7.75621 56.4176 7.69739 56.3619L7.18971 55.9192C6.66655 55.4177 6.02266 54.7986 5.58618 54.2352L4.75656 53.1703C3.92384 52.0652 3.28614 50.8114 2.72274 49.5484L2.44723 48.8767C2.36055 48.6352 2.28316 48.4464 2.20267 48.2049C2.12838 47.9789 2.02622 47.7375 1.96122 47.4991C1.89311 47.2484 1.80643 47.0069 1.74143 46.7717C1.60212 46.2733 1.4814 45.7934 1.36067 45.2858C1.11611 44.2425 0.942758 43.1931 0.784882 42.0694C0.688918 41.3915 0.441268 39.3143 0.438173 38.655C0.435077 37.9584 0.332922 37.1195 0.311252 36.4106C0.308157 36.2558 0.314348 36.0918 0.314348 35.9339C0.314348 35.7389 0.280296 35.6894 0.280296 35.4943L0.24934 32.2377C0.24934 31.9251 0.218384 31.6929 0.218384 31.3524C0.218384 30.0863 0.255531 28.8821 0.24934 27.5912C0.24934 27.39 0.280296 27.3343 0.283392 27.1516C0.289583 26.5356 0.32673 24.508 0.401025 23.9817C0.459842 23.5576 0.444364 22.7435 0.521754 22.2079C0.565093 21.9201 0.57438 21.6229 0.60224 21.3381C0.834412 18.9421 1.25232 16.5089 2.00146 14.2677C2.46271 12.884 3.01373 11.5931 3.71953 10.327L4.43771 9.1785C4.81847 8.60891 5.23328 8.08884 5.66357 7.55949L6.31365 6.81964C6.60464 6.48841 6.97302 6.19433 7.27639 5.88786C7.96052 5.19444 9.46808 4.14193 10.2544 3.68069C12.9909 2.07406 15.585 1.35588 18.6621 0.773904C19.6031 0.594358 21.4543 0.340518 22.4109 0.287892C22.8566 0.263127 23.2776 0.195024 23.7389 0.191928C24.1723 0.188833 24.9028 0.0959641 25.5096 0.0959641C25.7108 0.0959641 25.7665 0.0650079 25.9491 0.0619123C26.107 0.0588167 26.268 0.0650079 26.4259 0.0650079C26.6085 0.0619123 26.6642 0.0309562 26.8654 0.0309562L34.0844 0ZM43.7458 42.3542V19.5024C43.7458 19.2857 43.8913 19.0907 44.0925 19.0907H49.1817C49.383 19.0907 49.5285 19.2857 49.5285 19.5024V42.3542C49.5285 42.5802 49.3241 42.735 49.0858 42.735H44.1854C43.9471 42.735 43.7427 42.5802 43.7427 42.3542H43.7458ZM17.8603 42.735H12.929C12.7092 42.735 12.5173 42.6019 12.5173 42.3883V19.4405C12.5173 19.2547 12.6813 19.0938 12.864 19.0938C18.1513 19.0938 23.516 19.1247 28.794 19.0938L29.8372 19.1247C30.0075 19.1278 30.023 19.1526 30.1839 19.1588L31.5182 19.2485C31.7596 19.2733 31.9546 19.2919 32.1775 19.3166C32.5892 19.3631 33.035 19.4312 33.4282 19.521C35.9263 20.0813 37.3627 20.8583 38.3192 23.2914C39.1179 25.319 39.1953 28.7428 39.1953 31.0769V42.3604C39.1953 42.5864 38.991 42.7412 38.7526 42.7412H33.8522C33.295 42.7412 33.4096 42.1747 33.4096 41.636V30.7642C33.4096 29.2071 33.4467 26.7864 32.4654 25.48C31.4965 24.1891 29.3636 24.0003 27.7198 24.0003H18.7116C18.2225 24.0003 18.2689 24.4647 18.2689 24.7587C18.272 26.678 18.3092 42.3356 18.2534 42.5059C18.2318 42.5709 18.1606 42.6514 18.111 42.6792C18.0522 42.7133 17.9563 42.7412 17.8572 42.7412L17.8603 42.735Z" fill="#1971C2"/>
<path fill-rule="evenodd" clip-rule="evenodd" d="M121.464 29.079V36.1277C121.464 36.2299 121.579 36.2856 121.684 36.2856H123.832C123.984 36.2856 124.086 36.1866 124.086 36.0318V31.1005C124.086 30.6485 124.055 30.2956 124.055 29.8684L124.136 28.6549C124.331 27.6953 125.287 27.7201 126.142 27.7201C126.473 27.7201 127.046 27.751 127.29 27.8377C127.646 27.9646 127.789 28.1534 127.894 28.5311C128.036 29.0512 127.977 30.3575 127.977 31.0386V36.1897C128.045 36.2361 128.083 36.2856 128.197 36.2856H130.346C130.463 36.2856 130.497 36.2361 130.565 36.1897V31.0386C130.565 30.3544 130.503 29.0543 130.643 28.5218C130.726 28.1968 130.921 27.9337 131.249 27.8315C131.633 27.7108 132.286 27.717 132.748 27.717C133.627 27.717 134.28 27.912 134.401 28.6859C134.512 29.3855 134.453 32.8835 134.453 33.8803V35.8739C134.45 36.1185 134.469 36.2825 134.707 36.2825H136.856C137.004 36.2825 137.075 36.2082 137.075 36.0627V29.4567C137.075 27.977 136.908 27.1288 136.103 26.4137C135.026 25.4541 132.342 25.3581 130.804 25.7141C130.5 25.7853 130.07 25.9153 129.795 26.0329C129.423 26.1939 129.646 26.1692 129.141 26.1692L128.522 25.9029C127.529 25.5562 126.6 25.5346 125.538 25.5346C123.925 25.5346 122.189 25.8967 121.693 27.3795C121.535 27.8594 121.461 28.4537 121.461 29.0759L121.464 29.079ZM96.8417 32.8402C96.8417 32.2242 97.0398 31.9703 97.5908 31.7567C98.4545 31.4193 99.7732 31.4689 100.668 31.4812C101.058 31.4874 101.875 31.6081 102.247 31.6081C102.247 32.1344 102.209 33.3076 101.931 33.6946C101.618 34.1311 100.671 34.289 100.129 34.2951C99.3306 34.3044 98.6062 34.3571 97.9035 34.1806C97.2286 34.0104 96.8417 33.5708 96.8417 32.8402ZM95.5787 28.3825C95.7396 28.3825 95.8635 28.302 95.9935 28.2587C96.1483 28.2092 96.2783 28.1751 96.4269 28.1256C96.69 28.0389 97.0336 27.946 97.3153 27.8779C98.3276 27.6334 98.7145 27.5931 99.7825 27.5931C100.414 27.5931 101.188 27.717 101.584 27.9398C102.129 28.2494 102.185 28.8747 102.185 29.4877C101.631 29.4877 101.098 29.3917 100.352 29.3917C98.3492 29.3917 95.2474 29.4536 94.5726 31.5772C94.2228 32.6761 94.4023 34.1992 95.1267 35.0598C95.266 35.2238 95.1701 35.1557 95.3744 35.3167C96.7983 36.4249 98.0521 36.4404 100.002 36.4404C101.516 36.4404 103.389 36.1216 104.237 34.8276C105.048 33.5924 104.934 31.9518 104.934 30.4659C104.934 29.7167 104.819 28.8438 104.63 28.2742C104.519 27.9367 104.426 27.6674 104.256 27.3826C103.965 26.8904 103.507 26.4168 103.014 26.1258C101.07 24.9742 98.3183 25.2869 96.2535 25.8008C95.266 26.0484 95.3248 26.0329 95.3248 26.7666C95.3248 27.0669 95.3558 27.4136 95.3125 27.7015C95.2629 28.0203 95.2598 28.3794 95.5787 28.3794V28.3825ZM110.023 31.1655C110.023 30.1068 110.029 28.9893 110.645 28.3763C111.125 27.8996 111.561 27.7851 112.242 27.6984L112.992 27.6581C113.837 27.6581 114.586 27.7479 115.223 28.2401C115.307 28.3051 115.338 28.3423 115.394 28.4166C116.106 29.3422 115.963 30.3637 115.963 31.6422C115.963 32.8866 115.595 33.7844 114.515 34.1435C113.868 34.3571 113.357 34.3292 112.676 34.3292C111.778 34.3292 110.945 34.0506 110.561 33.5336C110.06 32.8619 110.02 32.0601 110.02 31.1686L110.023 31.1655ZM107.432 30.9766C107.432 31.8558 107.531 32.7009 107.729 33.3974C107.943 34.1496 108.429 35.0164 109.057 35.4839C110.178 36.3197 111.657 36.4776 113.122 36.4776C113.945 36.4776 114.821 36.394 115.471 36.2051C115.759 36.1216 116.158 35.9884 116.406 35.846C116.638 35.7098 116.979 35.4746 117.174 35.2888C117.248 35.2176 117.26 35.1898 117.319 35.1186C117.753 34.5768 117.886 34.4406 118.174 33.6636C118.799 31.9858 118.768 28.4816 117.474 27.039C116.821 26.3116 116.387 26.0732 115.406 25.7884C113.911 25.3488 110.917 25.3922 109.549 26.1815C108.011 27.07 107.429 28.85 107.429 30.9859L107.432 30.9766ZM74.0858 25.8565C74.1477 26.1196 75.8225 28.0915 76.0918 28.4351L77.8656 30.6423C77.9213 30.7104 77.9399 30.7321 77.9925 30.8002C78.0513 30.8745 78.0884 30.9116 78.1318 30.9766C78.0915 31.1469 76.2156 33.4129 76.1134 33.5398L74.3273 35.7656C74.2313 35.8894 74.1261 35.9606 74.0889 36.1277C74.1415 36.2268 74.157 36.2856 74.3087 36.2856H77.1226C77.3486 36.2856 77.652 35.7563 77.8872 35.4715L78.9335 34.1156C79.0419 33.9825 79.9365 32.8619 79.9675 32.7473C80.0913 32.7814 80.5773 33.5212 80.664 33.6327L82.0013 35.456C82.2118 35.7377 82.5245 36.2856 82.7504 36.2856C83.2519 36.2856 85.3631 36.329 85.6913 36.2547C85.7996 36.0287 85.6356 35.8956 85.3508 35.552C84.8678 34.97 84.289 34.1744 83.7999 33.5646L81.7413 30.9147C81.8187 30.7661 83.803 28.3392 83.9794 28.1256L84.7409 27.1814C84.8647 27.0266 85.7253 26.0113 85.7253 25.9215C85.7253 25.776 85.682 25.7017 85.4405 25.7017H82.7845C82.5183 25.7017 82.4904 25.8317 82.3325 26.0391C82.1158 26.3301 79.9675 29.206 79.8746 29.271L78.528 27.4229C78.2928 27.1102 78.0854 26.8223 77.8563 26.5159L77.3486 25.8224C77.2805 25.7327 77.2186 25.6986 77.0607 25.6986H74.3428C74.1973 25.6986 74.1694 25.7667 74.0889 25.8565H74.0858ZM140.586 25.9494V36.0318C140.586 36.1463 140.673 36.2856 140.775 36.2856H142.988C143.093 36.2856 143.208 36.2299 143.208 36.1277V25.9184C143.208 25.7667 143.099 25.6986 142.954 25.6986H140.898C140.71 25.6986 140.583 25.7636 140.583 25.9525L140.586 25.9494ZM88.6878 25.8565V36.1277C88.6878 36.202 88.7714 36.2856 88.8457 36.2856H91.121C91.1953 36.2856 91.2789 36.202 91.2789 36.1277V25.8565C91.2789 25.7327 91.1241 25.6986 90.9941 25.6986H88.9726C88.8457 25.6986 88.6878 25.7327 88.6878 25.8565Z" fill="#1971C2"/>
</g>
<defs>
<clipPath id="clip0_19_18">
<rect width="142.989" height="61.8163" fill="white" transform="translate(0.218384)"/>
</clipPath>
</defs>
</svg>
