<svg width="133" height="21" viewBox="0 0 133 21" fill="none" xmlns="http://www.w3.org/2000/svg">
<g clip-path="url(#clip0_1_168)">
<path d="M28.7055 0.504639C21.0829 0.504639 19.6232 2.73105 19.6232 10.5252C19.6232 18.2677 21.0829 20.4944 28.7055 20.4944C36.3589 20.4944 37.752 18.268 37.752 10.5252C37.752 2.73105 36.3589 0.504639 28.7055 0.504639ZM123.724 0.504639C116.104 0.504639 114.644 2.73105 114.644 10.5252C114.644 18.2677 116.104 20.4944 123.724 20.4944C131.38 20.4944 132.778 18.268 132.778 10.5252C132.778 2.73105 131.38 0.504639 123.724 0.504639ZM48.539 0.505675C42.1124 0.505675 39.6049 2.42279 39.6049 6.58704C39.6049 10.1198 40.4841 11.1808 44.4768 12.3029L48.4779 13.2971C49.6819 13.5859 49.935 13.9309 49.935 14.6746C49.935 15.7279 48.9662 15.981 45.4231 15.981C42.4551 15.981 39.9984 15.8126 39.9984 15.8126L39.9707 20.1812C39.9707 20.1812 43.4827 20.4954 46.7084 20.4954C52.9074 20.4954 55.8218 19.1231 55.8218 14.4451C55.8218 11.3238 55.3255 9.70013 51.3379 8.69818L47.2529 7.78353C45.916 7.50481 45.5018 7.19008 45.5018 6.36168C45.5018 5.27788 46.2559 5.07868 49.1983 5.07868C51.8236 5.07868 54.4771 5.21701 54.4771 5.21701L54.5331 0.814704C54.5331 0.814704 51.5324 0.505675 48.539 0.505675ZM94.0588 0.789577L99.4576 20.2066H108.504L113.875 0.789318H107.482L103.982 16.7814L100.45 0.789577H94.0588ZM66.6492 0.794758V5.15821H71.874V20.2066H78.1804V5.15821H83.3798V0.794499L66.6492 0.794758ZM58.0757 0.795535V20.2076H64.4182V0.795535H58.0757ZM85.6119 0.795535V20.2076H91.9487V0.795535H85.6119ZM0.152039 0.799162V20.2066H6.48623V14.2042H8.42899C15.8576 14.2042 17.7695 13.036 17.7695 7.69338C17.7695 1.84722 16.0211 0.799162 7.94848 0.799162H0.152039ZM28.7055 4.96263C31.3565 4.96263 31.5 5.30249 31.5 10.5249C31.5 15.7217 31.3565 16.0667 28.7055 16.0667C26.0447 16.0667 25.9346 15.7217 25.9346 10.5249C25.9346 5.30249 26.0447 4.96263 28.7055 4.96263ZM123.724 4.96263C126.38 4.96263 126.525 5.30249 126.525 10.5249C126.525 15.7217 126.38 16.0667 123.724 16.0667C121.078 16.0667 120.955 15.7217 120.955 10.5249C120.955 5.30249 121.078 4.96263 123.724 4.96263ZM6.48623 4.96315H8.57716C11.3152 4.96315 11.453 4.99372 11.453 7.69338C11.453 10.0143 11.3149 10.2697 8.57716 10.2697C7.76949 10.2697 7.02813 10.27 6.48623 10.2394V4.96315Z" fill="#1971C2"/>
</g>
<defs>
<clipPath id="clip0_1_168">
<rect width="132.626" height="20" fill="white" transform="translate(0.152039 0.5)"/>
</clipPath>
</defs>
</svg>
