<svg width="218" height="29" viewBox="0 0 218 29" fill="none" xmlns="http://www.w3.org/2000/svg">
<path d="M217.4 20.4999H208.308C208.28 21.2428 207.756 21.6999 207.08 21.6999H204.8C204.099 21.6999 203.562 21.0448 203.571 20.4999H194.6C194.27 20.4999 194 20.7699 194 21.0999V21.6999C194 23.0199 195.08 24.0999 196.4 24.0999H215.6C216.92 24.0999 218 23.0199 218 21.6999V21.0999C218 20.7699 217.73 20.4999 217.4 20.4999ZM215.6 6.6999C215.6 5.7099 214.79 4.8999 213.8 4.8999H198.2C197.21 4.8999 196.4 5.7099 196.4 6.6999V19.2999H215.6V6.6999ZM213.2 16.8999H198.8V7.2999H213.2V16.8999Z" fill="#E3E3E3"/>
<path d="M1.91761 23V5.54545H8.1392C9.49716 5.54545 10.6222 5.79261 11.5142 6.28693C12.4063 6.78125 13.0739 7.45739 13.517 8.31534C13.9602 9.16761 14.1818 10.1278 14.1818 11.196C14.1818 12.2699 13.9574 13.2358 13.5085 14.0938C13.0653 14.946 12.3949 15.6222 11.4972 16.1222C10.6051 16.6165 9.48295 16.8636 8.13068 16.8636H3.85227V14.6307H7.89205C8.75 14.6307 9.44602 14.483 9.98011 14.1875C10.5142 13.8864 10.9062 13.4773 11.1562 12.9602C11.4062 12.4432 11.5312 11.8551 11.5312 11.196C11.5312 10.5369 11.4062 9.9517 11.1562 9.44034C10.9062 8.92898 10.5114 8.52841 9.97159 8.23864C9.4375 7.94886 8.73295 7.80398 7.85795 7.80398H4.55114V23H1.91761ZM17.9233 23.1619C17.4574 23.1619 17.0568 22.9972 16.7216 22.6676C16.3864 22.3324 16.2188 21.929 16.2188 21.4574C16.2188 20.9915 16.3864 20.5937 16.7216 20.2642C17.0568 19.929 17.4574 19.7614 17.9233 19.7614C18.3892 19.7614 18.7898 19.929 19.125 20.2642C19.4602 20.5937 19.6278 20.9915 19.6278 21.4574C19.6278 21.7699 19.5483 22.0568 19.3892 22.3182C19.2358 22.5739 19.0312 22.7784 18.7756 22.9318C18.5199 23.0852 18.2358 23.1619 17.9233 23.1619ZM24.7202 23H21.9247L28.206 5.54545H31.2486L37.5298 23H34.7344L29.7997 8.71591H29.6634L24.7202 23ZM25.1889 16.1648H34.2571V18.3807H25.1889V16.1648ZM41.5249 23.1619C41.0589 23.1619 40.6584 22.9972 40.3232 22.6676C39.9879 22.3324 39.8203 21.929 39.8203 21.4574C39.8203 20.9915 39.9879 20.5937 40.3232 20.2642C40.6584 19.929 41.0589 19.7614 41.5249 19.7614C41.9908 19.7614 42.3913 19.929 42.7266 20.2642C43.0618 20.5937 43.2294 20.9915 43.2294 21.4574C43.2294 21.7699 43.1499 22.0568 42.9908 22.3182C42.8374 22.5739 42.6328 22.7784 42.3771 22.9318C42.1214 23.0852 41.8374 23.1619 41.5249 23.1619Z" fill="#E3E3E3"/>
<path d="M56.5632 5.54545V23H53.4013V5.54545H56.5632ZM62.9361 15.3295V23H59.8509V9.90909H62.7997V12.1335H62.9531C63.2543 11.4006 63.7344 10.8182 64.3935 10.3864C65.0582 9.95455 65.8793 9.73864 66.8565 9.73864C67.7599 9.73864 68.5469 9.93182 69.2173 10.3182C69.8935 10.7045 70.4162 11.2642 70.7855 11.9972C71.1605 12.7301 71.3452 13.6193 71.3395 14.6648V23H68.2543V15.142C68.2543 14.267 68.027 13.5824 67.5724 13.0881C67.1236 12.5937 66.5014 12.3466 65.706 12.3466C65.1662 12.3466 64.6861 12.4659 64.2656 12.7045C63.8509 12.9375 63.5241 13.2756 63.2855 13.7188C63.0526 14.1619 62.9361 14.6989 62.9361 15.3295ZM81.1065 9.90909V12.2955H73.3679V9.90909H81.1065ZM75.3026 23V8.67329C75.3026 7.79261 75.4844 7.05966 75.848 6.47443C76.2173 5.8892 76.7116 5.4517 77.331 5.16193C77.9503 4.87216 78.6378 4.72727 79.3935 4.72727C79.9276 4.72727 80.402 4.76989 80.8168 4.85511C81.2315 4.94034 81.5384 5.01705 81.7372 5.08523L81.1236 7.47159C80.9929 7.43182 80.8281 7.39204 80.6293 7.35227C80.4304 7.30682 80.2088 7.28409 79.9645 7.28409C79.3906 7.28409 78.9844 7.4233 78.7457 7.7017C78.5128 7.97443 78.3963 8.36648 78.3963 8.87784V23H75.3026ZM88.7408 23.2557C87.4624 23.2557 86.3544 22.9744 85.4169 22.4119C84.4794 21.8494 83.7521 21.0625 83.2351 20.0511C82.7237 19.0398 82.468 17.858 82.468 16.5057C82.468 15.1534 82.7237 13.9687 83.2351 12.9517C83.7521 11.9347 84.4794 11.1449 85.4169 10.5824C86.3544 10.0199 87.4624 9.73864 88.7408 9.73864C90.0192 9.73864 91.1271 10.0199 92.0646 10.5824C93.0021 11.1449 93.7266 11.9347 94.2379 12.9517C94.755 13.9687 95.0135 15.1534 95.0135 16.5057C95.0135 17.858 94.755 19.0398 94.2379 20.0511C93.7266 21.0625 93.0021 21.8494 92.0646 22.4119C91.1271 22.9744 90.0192 23.2557 88.7408 23.2557ZM88.7578 20.7841C89.451 20.7841 90.0305 20.5937 90.4964 20.2131C90.9624 19.8267 91.3089 19.3097 91.5362 18.6619C91.7692 18.0142 91.8857 17.2926 91.8857 16.4972C91.8857 15.696 91.7692 14.9716 91.5362 14.3239C91.3089 13.6705 90.9624 13.1506 90.4964 12.7642C90.0305 12.3778 89.451 12.1847 88.7578 12.1847C88.0476 12.1847 87.4567 12.3778 86.9851 12.7642C86.5192 13.1506 86.1697 13.6705 85.9368 14.3239C85.7095 14.9716 85.5959 15.696 85.5959 16.4972C85.5959 17.2926 85.7095 18.0142 85.9368 18.6619C86.1697 19.3097 86.5192 19.8267 86.9851 20.2131C87.4567 20.5937 88.0476 20.7841 88.7578 20.7841ZM97.6321 23V9.90909H100.624V12.0909H100.76C100.999 11.3352 101.408 10.7528 101.987 10.3438C102.572 9.92898 103.24 9.72159 103.99 9.72159C104.161 9.72159 104.351 9.73011 104.561 9.74716C104.777 9.75852 104.956 9.77841 105.098 9.80682V12.6449C104.967 12.5994 104.76 12.5597 104.476 12.5256C104.197 12.4858 103.928 12.4659 103.666 12.4659C103.104 12.4659 102.598 12.5881 102.149 12.8324C101.706 13.071 101.357 13.4034 101.101 13.8295C100.845 14.2557 100.717 14.7472 100.717 15.304V23H97.6321ZM107.148 23V9.90909H110.097V12.1335H110.25C110.523 11.3835 110.974 10.7983 111.605 10.3778C112.236 9.9517 112.989 9.73864 113.864 9.73864C114.75 9.73864 115.497 9.95455 116.105 10.3864C116.719 10.8125 117.151 11.3949 117.401 12.1335H117.537C117.827 11.4062 118.315 10.8267 119.003 10.3949C119.696 9.95739 120.517 9.73864 121.466 9.73864C122.67 9.73864 123.653 10.1193 124.415 10.8807C125.176 11.642 125.557 12.7528 125.557 14.2131V23H122.463V14.6903C122.463 13.8778 122.247 13.2841 121.815 12.9091C121.384 12.5284 120.855 12.3381 120.23 12.3381C119.486 12.3381 118.903 12.571 118.483 13.0369C118.068 13.4972 117.861 14.0966 117.861 14.8352V23H114.835V14.5625C114.835 13.8864 114.631 13.3466 114.222 12.9432C113.818 12.5398 113.29 12.3381 112.636 12.3381C112.193 12.3381 111.79 12.4517 111.426 12.679C111.063 12.9006 110.773 13.2159 110.557 13.625C110.341 14.0284 110.233 14.5 110.233 15.0398V23H107.148ZM132.454 23.2642C131.624 23.2642 130.877 23.1165 130.212 22.821C129.553 22.5199 129.031 22.0767 128.644 21.4915C128.263 20.9062 128.073 20.1847 128.073 19.3267C128.073 18.5881 128.21 17.9773 128.482 17.4943C128.755 17.0114 129.127 16.625 129.599 16.3352C130.07 16.0455 130.602 15.8267 131.192 15.679C131.789 15.5256 132.406 15.4148 133.042 15.3466C133.809 15.267 134.431 15.196 134.908 15.1335C135.386 15.0653 135.732 14.9631 135.948 14.8267C136.17 14.6847 136.281 14.4659 136.281 14.1705V14.1193C136.281 13.4773 136.09 12.9801 135.71 12.6278C135.329 12.2756 134.781 12.0994 134.065 12.0994C133.309 12.0994 132.71 12.2642 132.266 12.5938C131.829 12.9233 131.533 13.3125 131.38 13.7614L128.499 13.3523C128.727 12.5568 129.102 11.892 129.624 11.358C130.147 10.8182 130.786 10.4148 131.542 10.1477C132.298 9.875 133.133 9.73864 134.048 9.73864C134.678 9.73864 135.306 9.8125 135.931 9.96023C136.556 10.108 137.127 10.3523 137.644 10.6932C138.161 11.0284 138.576 11.4858 138.888 12.0653C139.207 12.6449 139.366 13.3693 139.366 14.2386V23H136.4V21.2017H136.298C136.11 21.5653 135.846 21.9062 135.505 22.2244C135.17 22.5369 134.746 22.7898 134.235 22.983C133.729 23.1705 133.136 23.2642 132.454 23.2642ZM133.255 20.9972C133.874 20.9972 134.411 20.875 134.866 20.6307C135.32 20.3807 135.67 20.0511 135.914 19.642C136.164 19.233 136.289 18.7869 136.289 18.304V16.7614C136.192 16.8409 136.028 16.9148 135.795 16.983C135.567 17.0511 135.312 17.1108 135.028 17.1619C134.744 17.2131 134.462 17.2585 134.184 17.2983C133.906 17.3381 133.664 17.3722 133.46 17.4006C132.999 17.4631 132.587 17.5653 132.224 17.7074C131.86 17.8494 131.573 18.0483 131.363 18.304C131.153 18.554 131.048 18.8778 131.048 19.2756C131.048 19.8438 131.255 20.2727 131.67 20.5625C132.085 20.8523 132.613 20.9972 133.255 20.9972ZM132.999 8.1875L134.908 4.29261H137.925L135.309 8.1875H132.999ZM149.005 9.90909V12.2955H141.479V9.90909H149.005ZM143.337 6.77273H146.423V19.0625C146.423 19.4773 146.485 19.7955 146.61 20.017C146.741 20.233 146.911 20.3807 147.121 20.4602C147.332 20.5398 147.565 20.5795 147.82 20.5795C148.013 20.5795 148.19 20.5653 148.349 20.5369C148.513 20.5085 148.638 20.483 148.724 20.4602L149.244 22.8722C149.079 22.929 148.843 22.9915 148.536 23.0597C148.235 23.1278 147.866 23.1676 147.428 23.179C146.656 23.2017 145.96 23.0852 145.34 22.8295C144.721 22.5682 144.229 22.1648 143.866 21.6193C143.508 21.0739 143.332 20.392 143.337 19.5739V6.77273ZM151.585 23V9.90909H154.67V23H151.585ZM153.136 8.05114C152.648 8.05114 152.227 7.8892 151.875 7.56534C151.523 7.23579 151.347 6.84091 151.347 6.38068C151.347 5.91477 151.523 5.51989 151.875 5.19602C152.227 4.86648 152.648 4.7017 153.136 4.7017C153.631 4.7017 154.051 4.86648 154.398 5.19602C154.75 5.51989 154.926 5.91477 154.926 6.38068C154.926 6.84091 154.75 7.23579 154.398 7.56534C154.051 7.8892 153.631 8.05114 153.136 8.05114ZM163.553 23.2557C162.246 23.2557 161.124 22.9688 160.187 22.3949C159.255 21.821 158.536 21.0284 158.031 20.017C157.531 19 157.281 17.8295 157.281 16.5057C157.281 15.1761 157.536 14.0028 158.048 12.9858C158.559 11.9631 159.281 11.1676 160.212 10.5994C161.15 10.0256 162.258 9.73864 163.536 9.73864C164.599 9.73864 165.539 9.93466 166.357 10.3267C167.181 10.7131 167.837 11.2614 168.326 11.9716C168.815 12.6761 169.093 13.5 169.161 14.4432H166.212C166.093 13.8125 165.809 13.2869 165.36 12.8665C164.917 12.4403 164.323 12.2273 163.579 12.2273C162.948 12.2273 162.394 12.3977 161.917 12.7386C161.44 13.0739 161.067 13.5568 160.8 14.1875C160.539 14.8182 160.408 15.5739 160.408 16.4545C160.408 17.3466 160.539 18.1136 160.8 18.7557C161.062 19.392 161.428 19.8835 161.9 20.2301C162.377 20.571 162.937 20.7415 163.579 20.7415C164.033 20.7415 164.44 20.6562 164.798 20.4858C165.161 20.3097 165.465 20.0568 165.71 19.7273C165.954 19.3977 166.121 18.9972 166.212 18.5256H169.161C169.087 19.4517 168.815 20.2727 168.343 20.9886C167.871 21.6989 167.229 22.2557 166.417 22.6591C165.604 23.0568 164.65 23.2557 163.553 23.2557ZM175.462 23.2642C174.632 23.2642 173.885 23.1165 173.22 22.821C172.561 22.5199 172.038 22.0767 171.652 21.4915C171.271 20.9062 171.081 20.1847 171.081 19.3267C171.081 18.5881 171.217 17.9773 171.49 17.4943C171.763 17.0114 172.135 16.625 172.607 16.3352C173.078 16.0455 173.609 15.8267 174.2 15.679C174.797 15.5256 175.413 15.4148 176.05 15.3466C176.817 15.267 177.439 15.196 177.916 15.1335C178.393 15.0653 178.74 14.9631 178.956 14.8267C179.178 14.6847 179.288 14.4659 179.288 14.1705V14.1193C179.288 13.4773 179.098 12.9801 178.717 12.6278C178.337 12.2756 177.788 12.0994 177.072 12.0994C176.317 12.0994 175.717 12.2642 175.274 12.5938C174.837 12.9233 174.541 13.3125 174.388 13.7614L171.507 13.3523C171.734 12.5568 172.109 11.892 172.632 11.358C173.155 10.8182 173.794 10.4148 174.55 10.1477C175.305 9.875 176.141 9.73864 177.055 9.73864C177.686 9.73864 178.314 9.8125 178.939 9.96023C179.564 10.108 180.135 10.3523 180.652 10.6932C181.169 11.0284 181.584 11.4858 181.896 12.0653C182.214 12.6449 182.374 13.3693 182.374 14.2386V23H179.408V21.2017H179.305C179.118 21.5653 178.854 21.9062 178.513 22.2244C178.178 22.5369 177.754 22.7898 177.243 22.983C176.737 23.1705 176.143 23.2642 175.462 23.2642ZM176.263 20.9972C176.882 20.9972 177.419 20.875 177.874 20.6307C178.328 20.3807 178.678 20.0511 178.922 19.642C179.172 19.233 179.297 18.7869 179.297 18.304V16.7614C179.2 16.8409 179.036 16.9148 178.803 16.983C178.575 17.0511 178.32 17.1108 178.036 17.1619C177.751 17.2131 177.47 17.2585 177.192 17.2983C176.913 17.3381 176.672 17.3722 176.467 17.4006C176.007 17.4631 175.595 17.5653 175.232 17.7074C174.868 17.8494 174.581 18.0483 174.371 18.304C174.161 18.554 174.055 18.8778 174.055 19.2756C174.055 19.8438 174.263 20.2727 174.678 20.5625C175.092 20.8523 175.621 20.9972 176.263 20.9972Z" fill="#F0F9FF"/>
</svg>
