<svg width="134" height="45" viewBox="0 0 134 45" fill="none" xmlns="http://www.w3.org/2000/svg">
<path d="M31.9386 23.9113C31.8843 18.2171 36.5905 15.4813 36.8022 15.351C34.1533 11.4807 30.0387 10.9487 28.5731 10.889C25.0719 10.5308 21.7389 12.9517 19.9585 12.9517C18.178 12.9517 15.4367 10.9379 12.5326 10.9976C8.71117 11.0519 5.18825 13.2177 3.21781 16.6375C-0.744798 23.5096 2.20816 33.7147 6.07848 39.3004C7.97293 42.0308 10.2202 45.1086 13.184 44.9946C16.0393 44.8806 17.1141 43.149 20.5556 43.149C23.9971 43.149 24.9687 44.9946 27.9814 44.9403C31.0483 44.8806 32.9916 42.1502 34.8698 39.4089C37.0302 36.2334 37.9259 33.1665 37.9802 33.0036C37.9096 32.9765 32.0037 30.7129 31.9386 23.9113Z" fill="#1971C2"/>
<path d="M26.2769 7.18697C27.8511 5.28166 28.9096 2.63812 28.6219 0C26.3583 0.0922799 23.6171 1.50905 21.994 3.41435C20.5393 5.09711 19.2636 7.78951 19.6111 10.3733C22.1243 10.5688 24.7082 9.08685 26.2769 7.18697ZM51.7896 29.5078L49.184 37.4059H45.8348L54.3626 12.3058H58.2709L66.8312 37.4059H63.368L60.6865 29.5078H51.7896ZM60.0188 26.9729L57.5652 19.7479C57.0061 18.1086 56.637 16.6212 56.2624 15.1665H56.1919C55.8173 16.6538 55.4102 18.1791 54.9271 19.7099L52.4735 26.9674L60.0188 26.9729ZM69.3716 25.263C69.3716 22.956 69.301 21.0887 69.2196 19.3788H72.1617L72.3137 22.4729H72.3843C73.7251 20.2744 75.8475 18.9717 78.7896 18.9717C83.1485 18.9717 86.4217 22.6574 86.4217 28.1345C86.4217 34.6158 82.4754 37.813 78.2305 37.813C75.8475 37.813 73.7631 36.7708 72.6828 34.9849H72.6123V44.7774H69.3716V25.263ZM72.6068 30.0669C72.6068 30.5555 72.6774 30.9952 72.7588 31.4077C73.3559 33.6767 75.3264 35.2455 77.6768 35.2455C81.14 35.2455 83.1539 32.4174 83.1539 28.2811C83.1539 24.6659 81.254 21.5826 77.7908 21.5826C75.5598 21.5826 73.4754 23.184 72.8348 25.6429C72.7208 26.0501 72.6123 26.5386 72.6123 26.9837L72.6068 30.0669ZM89.8089 25.263C89.8089 22.956 89.7383 21.0887 89.6569 19.3788H92.599L92.751 22.4729H92.8216C94.1623 20.2744 96.2848 18.9717 99.2269 18.9717C103.586 18.9717 106.859 22.6574 106.859 28.1345C106.859 34.6158 102.913 37.813 98.6678 37.813C96.2848 37.813 94.2003 36.7708 93.1201 34.9849H93.0495V44.7774H89.8089V25.263ZM93.0495 30.0669C93.0495 30.5555 93.1201 30.9952 93.2015 31.4077C93.7986 33.6767 95.7691 35.2455 98.1195 35.2455C101.583 35.2455 103.597 32.4174 103.597 28.2811C103.597 24.6659 101.697 21.5826 98.2335 21.5826C96.0025 21.5826 93.9181 23.184 93.2775 25.6429C93.1635 26.0501 93.055 26.5386 93.055 26.9837L93.0495 30.0669ZM110.252 10.965H113.53V37.4005H110.252V10.965ZM120.12 28.9867C120.191 33.4162 123.024 35.2455 126.297 35.2455C128.642 35.2455 130.059 34.8384 131.286 34.3172L131.845 36.6622C130.694 37.1834 128.718 37.7805 125.852 37.7805C120.305 37.7805 116.988 34.1327 116.988 28.6936C116.988 23.2545 120.191 18.9717 125.44 18.9717C131.324 18.9717 132.887 24.1448 132.887 27.4614C132.887 28.1345 132.817 28.6502 132.773 28.9867H120.12ZM129.728 26.6417C129.766 24.5573 128.87 21.3166 125.185 21.3166C121.868 21.3166 120.419 24.3727 120.158 26.6417H129.728Z" fill="#1971C2"/>
</svg>
