<svg width="180" height="20" viewBox="0 0 180 20" fill="none" xmlns="http://www.w3.org/2000/svg">
<path d="M0.113636 19V1.54545H6.01136C7.38068 1.54545 8.5 1.79261 9.36932 2.28693C10.2443 2.77557 10.892 3.4375 11.3125 4.27273C11.733 5.10795 11.9432 6.03977 11.9432 7.06818C11.9432 8.09659 11.733 9.03125 11.3125 9.87216C10.8977 10.7131 10.2557 11.3835 9.38636 11.8835C8.51705 12.3778 7.40341 12.625 6.04545 12.625H1.81818V10.75H5.97727C6.91477 10.75 7.66761 10.5881 8.2358 10.2642C8.80398 9.94034 9.21591 9.50284 9.47159 8.9517C9.73295 8.39489 9.86364 7.76705 9.86364 7.06818C9.86364 6.36932 9.73295 5.74432 9.47159 5.19318C9.21591 4.64205 8.80114 4.21023 8.22727 3.89773C7.65341 3.57955 6.89205 3.42045 5.94318 3.42045H2.22727V19H0.113636ZM15.7209 19.1364C15.3004 19.1364 14.9396 18.9858 14.6385 18.6847C14.3374 18.3835 14.1868 18.0227 14.1868 17.6023C14.1868 17.1818 14.3374 16.821 14.6385 16.5199C14.9396 16.2187 15.3004 16.0682 15.7209 16.0682C16.1413 16.0682 16.5021 16.2187 16.8033 16.5199C17.1044 16.821 17.255 17.1818 17.255 17.6023C17.255 17.8807 17.1839 18.1364 17.0419 18.3693C16.9055 18.6023 16.7209 18.7898 16.4879 18.9318C16.2607 19.0682 16.005 19.1364 15.7209 19.1364ZM21.853 19H19.6371L26.0462 1.54545H28.228L34.6371 19H32.4212L27.2053 4.30682H27.0689L21.853 19ZM22.6712 12.1818H31.603V14.0568H22.6712V12.1818ZM38.549 19.1364C38.1286 19.1364 37.7678 18.9858 37.4666 18.6847C37.1655 18.3835 37.0149 18.0227 37.0149 17.6023C37.0149 17.1818 37.1655 16.821 37.4666 16.5199C37.7678 16.2187 38.1286 16.0682 38.549 16.0682C38.9695 16.0682 39.3303 16.2187 39.6314 16.5199C39.9325 16.821 40.0831 17.1818 40.0831 17.6023C40.0831 17.8807 40.0121 18.1364 39.87 18.3693C39.7337 18.6023 39.549 18.7898 39.3161 18.9318C39.0888 19.0682 38.8331 19.1364 38.549 19.1364ZM53.4851 1.54545V19H50.3232V1.54545H53.4851ZM59.858 11.3295V19H56.7727V5.90909H59.7216V8.13352H59.875C60.1761 7.40057 60.6563 6.81818 61.3153 6.38636C61.9801 5.95455 62.8011 5.73864 63.7784 5.73864C64.6818 5.73864 65.4688 5.93182 66.1392 6.31818C66.8153 6.70455 67.3381 7.2642 67.7074 7.99716C68.0824 8.73011 68.267 9.61932 68.2614 10.6648V19H65.1761V11.142C65.1761 10.267 64.9489 9.58239 64.4943 9.08807C64.0455 8.59375 63.4233 8.34659 62.6278 8.34659C62.0881 8.34659 61.608 8.46591 61.1875 8.70455C60.7727 8.9375 60.446 9.27557 60.2074 9.71875C59.9744 10.1619 59.858 10.6989 59.858 11.3295ZM78.0284 5.90909V8.29545H70.2898V5.90909H78.0284ZM72.2244 19V4.67329C72.2244 3.79261 72.4063 3.05966 72.7699 2.47443C73.1392 1.8892 73.6335 1.4517 74.2528 1.16193C74.8722 0.872158 75.5597 0.727272 76.3153 0.727272C76.8494 0.727272 77.3239 0.769886 77.7386 0.855114C78.1534 0.940341 78.4602 1.01705 78.6591 1.08523L78.0455 3.47159C77.9148 3.43182 77.75 3.39204 77.5511 3.35227C77.3523 3.30682 77.1307 3.28409 76.8864 3.28409C76.3125 3.28409 75.9063 3.4233 75.6676 3.7017C75.4347 3.97443 75.3182 4.36648 75.3182 4.87784V19H72.2244ZM85.6626 19.2557C84.3842 19.2557 83.2763 18.9744 82.3388 18.4119C81.4013 17.8494 80.674 17.0625 80.157 16.0511C79.6456 15.0398 79.3899 13.858 79.3899 12.5057C79.3899 11.1534 79.6456 9.96875 80.157 8.9517C80.674 7.93466 81.4013 7.14489 82.3388 6.58239C83.2763 6.01989 84.3842 5.73864 85.6626 5.73864C86.9411 5.73864 88.049 6.01989 88.9865 6.58239C89.924 7.14489 90.6484 7.93466 91.1598 8.9517C91.6768 9.96875 91.9354 11.1534 91.9354 12.5057C91.9354 13.858 91.6768 15.0398 91.1598 16.0511C90.6484 17.0625 89.924 17.8494 88.9865 18.4119C88.049 18.9744 86.9411 19.2557 85.6626 19.2557ZM85.6797 16.7841C86.3729 16.7841 86.9524 16.5937 87.4183 16.2131C87.8842 15.8267 88.2308 15.3097 88.4581 14.6619C88.6911 14.0142 88.8075 13.2926 88.8075 12.4972C88.8075 11.696 88.6911 10.9716 88.4581 10.3239C88.2308 9.67045 87.8842 9.15057 87.4183 8.7642C86.9524 8.37784 86.3729 8.18466 85.6797 8.18466C84.9695 8.18466 84.3786 8.37784 83.907 8.7642C83.4411 9.15057 83.0916 9.67045 82.8587 10.3239C82.6314 10.9716 82.5178 11.696 82.5178 12.4972C82.5178 13.2926 82.6314 14.0142 82.8587 14.6619C83.0916 15.3097 83.4411 15.8267 83.907 16.2131C84.3786 16.5937 84.9695 16.7841 85.6797 16.7841ZM94.554 19V5.90909H97.5455V8.09091H97.6818C97.9205 7.33523 98.3295 6.75284 98.9091 6.34375C99.4943 5.92898 100.162 5.72159 100.912 5.72159C101.082 5.72159 101.273 5.73011 101.483 5.74716C101.699 5.75852 101.878 5.77841 102.02 5.80682V8.64489C101.889 8.59943 101.682 8.55966 101.398 8.52557C101.119 8.4858 100.849 8.46591 100.588 8.46591C100.026 8.46591 99.5199 8.58807 99.071 8.83239C98.6278 9.07102 98.2784 9.40341 98.0227 9.82955C97.767 10.2557 97.6392 10.7472 97.6392 11.304V19H94.554ZM104.07 19V5.90909H107.018V8.13352H107.172C107.445 7.38352 107.896 6.7983 108.527 6.37784C109.158 5.9517 109.911 5.73864 110.786 5.73864C111.672 5.73864 112.419 5.95455 113.027 6.38636C113.641 6.8125 114.072 7.39489 114.322 8.13352H114.459C114.749 7.40625 115.237 6.8267 115.925 6.39489C116.618 5.95739 117.439 5.73864 118.388 5.73864C119.592 5.73864 120.575 6.11932 121.337 6.88068C122.098 7.64205 122.479 8.75284 122.479 10.2131V19H119.385V10.6903C119.385 9.87784 119.169 9.28409 118.737 8.90909C118.305 8.52841 117.777 8.33807 117.152 8.33807C116.408 8.33807 115.825 8.57102 115.405 9.03693C114.99 9.49716 114.783 10.0966 114.783 10.8352V19H111.757V10.5625C111.757 9.88636 111.553 9.34659 111.143 8.94318C110.74 8.53977 110.212 8.33807 109.558 8.33807C109.115 8.33807 108.712 8.4517 108.348 8.67898C107.984 8.90057 107.695 9.21591 107.479 9.625C107.263 10.0284 107.155 10.5 107.155 11.0398V19H104.07ZM129.376 19.2642C128.546 19.2642 127.799 19.1165 127.134 18.821C126.475 18.5199 125.952 18.0767 125.566 17.4915C125.185 16.9062 124.995 16.1847 124.995 15.3267C124.995 14.5881 125.131 13.9773 125.404 13.4943C125.677 13.0114 126.049 12.625 126.521 12.3352C126.992 12.0455 127.523 11.8267 128.114 11.679C128.711 11.5256 129.327 11.4148 129.964 11.3466C130.731 11.267 131.353 11.196 131.83 11.1335C132.308 11.0653 132.654 10.9631 132.87 10.8267C133.092 10.6847 133.202 10.4659 133.202 10.1705V10.1193C133.202 9.47727 133.012 8.98011 132.631 8.62784C132.251 8.27557 131.702 8.09943 130.987 8.09943C130.231 8.09943 129.631 8.2642 129.188 8.59375C128.751 8.9233 128.455 9.3125 128.302 9.76136L125.421 9.35227C125.648 8.55682 126.023 7.89205 126.546 7.35795C127.069 6.81818 127.708 6.41477 128.464 6.14773C129.219 5.875 130.055 5.73864 130.969 5.73864C131.6 5.73864 132.228 5.8125 132.853 5.96023C133.478 6.10795 134.049 6.35227 134.566 6.69318C135.083 7.02841 135.498 7.4858 135.81 8.06534C136.129 8.64489 136.288 9.36932 136.288 10.2386V19H133.322V17.2017H133.219C133.032 17.5653 132.768 17.9062 132.427 18.2244C132.092 18.5369 131.668 18.7898 131.157 18.983C130.651 19.1705 130.058 19.2642 129.376 19.2642ZM130.177 16.9972C130.796 16.9972 131.333 16.875 131.788 16.6307C132.242 16.3807 132.592 16.0511 132.836 15.642C133.086 15.233 133.211 14.7869 133.211 14.304V12.7614C133.114 12.8409 132.95 12.9148 132.717 12.983C132.489 13.0511 132.234 13.1108 131.95 13.1619C131.665 13.2131 131.384 13.2585 131.106 13.2983C130.827 13.3381 130.586 13.3722 130.381 13.4006C129.921 13.4631 129.509 13.5653 129.146 13.7074C128.782 13.8494 128.495 14.0483 128.285 14.304C128.075 14.554 127.969 14.8778 127.969 15.2756C127.969 15.8438 128.177 16.2727 128.592 16.5625C129.006 16.8523 129.535 16.9972 130.177 16.9972ZM129.921 4.1875L131.83 0.292614H134.847L132.231 4.1875H129.921ZM145.927 5.90909V8.29545H138.401V5.90909H145.927ZM140.259 2.77273H143.344V15.0625C143.344 15.4773 143.407 15.7955 143.532 16.017C143.663 16.233 143.833 16.3807 144.043 16.4602C144.254 16.5398 144.487 16.5795 144.742 16.5795C144.935 16.5795 145.112 16.5653 145.271 16.5369C145.435 16.5085 145.56 16.483 145.646 16.4602L146.165 18.8722C146.001 18.929 145.765 18.9915 145.458 19.0597C145.157 19.1278 144.788 19.1676 144.35 19.179C143.577 19.2017 142.881 19.0852 142.262 18.8295C141.643 18.5682 141.151 18.1648 140.788 17.6193C140.43 17.0739 140.254 16.392 140.259 15.5739V2.77273ZM148.507 19V5.90909H151.592V19H148.507ZM150.058 4.05114C149.57 4.05114 149.149 3.8892 148.797 3.56534C148.445 3.23579 148.268 2.84091 148.268 2.38068C148.268 1.91477 148.445 1.51989 148.797 1.19602C149.149 0.866477 149.57 0.701704 150.058 0.701704C150.553 0.701704 150.973 0.866477 151.32 1.19602C151.672 1.51989 151.848 1.91477 151.848 2.38068C151.848 2.84091 151.672 3.23579 151.32 3.56534C150.973 3.8892 150.553 4.05114 150.058 4.05114ZM160.475 19.2557C159.168 19.2557 158.046 18.9688 157.109 18.3949C156.177 17.821 155.458 17.0284 154.952 16.017C154.452 15 154.202 13.8295 154.202 12.5057C154.202 11.1761 154.458 10.0028 154.969 8.9858C155.481 7.96307 156.202 7.16761 157.134 6.59943C158.072 6.02557 159.18 5.73864 160.458 5.73864C161.521 5.73864 162.461 5.93466 163.279 6.3267C164.103 6.71307 164.759 7.26136 165.248 7.97159C165.737 8.67614 166.015 9.5 166.083 10.4432H163.134C163.015 9.8125 162.731 9.28693 162.282 8.86648C161.839 8.44034 161.245 8.22727 160.501 8.22727C159.87 8.22727 159.316 8.39773 158.839 8.73864C158.362 9.07386 157.989 9.55682 157.722 10.1875C157.461 10.8182 157.33 11.5739 157.33 12.4545C157.33 13.3466 157.461 14.1136 157.722 14.7557C157.984 15.392 158.35 15.8835 158.822 16.2301C159.299 16.571 159.859 16.7415 160.501 16.7415C160.955 16.7415 161.362 16.6562 161.719 16.4858C162.083 16.3097 162.387 16.0568 162.631 15.7273C162.876 15.3977 163.043 14.9972 163.134 14.5256H166.083C166.009 15.4517 165.737 16.2727 165.265 16.9886C164.793 17.6989 164.151 18.2557 163.339 18.6591C162.526 19.0568 161.572 19.2557 160.475 19.2557ZM172.384 19.2642C171.554 19.2642 170.807 19.1165 170.142 18.821C169.483 18.5199 168.96 18.0767 168.574 17.4915C168.193 16.9062 168.003 16.1847 168.003 15.3267C168.003 14.5881 168.139 13.9773 168.412 13.4943C168.685 13.0114 169.057 12.625 169.528 12.3352C170 12.0455 170.531 11.8267 171.122 11.679C171.719 11.5256 172.335 11.4148 172.972 11.3466C173.739 11.267 174.361 11.196 174.838 11.1335C175.315 11.0653 175.662 10.9631 175.878 10.8267C176.099 10.6847 176.21 10.4659 176.21 10.1705V10.1193C176.21 9.47727 176.02 8.98011 175.639 8.62784C175.259 8.27557 174.71 8.09943 173.994 8.09943C173.239 8.09943 172.639 8.2642 172.196 8.59375C171.759 8.9233 171.463 9.3125 171.31 9.76136L168.429 9.35227C168.656 8.55682 169.031 7.89205 169.554 7.35795C170.077 6.81818 170.716 6.41477 171.472 6.14773C172.227 5.875 173.063 5.73864 173.977 5.73864C174.608 5.73864 175.236 5.8125 175.861 5.96023C176.486 6.10795 177.057 6.35227 177.574 6.69318C178.091 7.02841 178.506 7.4858 178.818 8.06534C179.136 8.64489 179.295 9.36932 179.295 10.2386V19H176.33V17.2017H176.227C176.04 17.5653 175.776 17.9062 175.435 18.2244C175.099 18.5369 174.676 18.7898 174.165 18.983C173.659 19.1705 173.065 19.2642 172.384 19.2642ZM173.185 16.9972C173.804 16.9972 174.341 16.875 174.795 16.6307C175.25 16.3807 175.599 16.0511 175.844 15.642C176.094 15.233 176.219 14.7869 176.219 14.304V12.7614C176.122 12.8409 175.957 12.9148 175.724 12.983C175.497 13.0511 175.241 13.1108 174.957 13.1619C174.673 13.2131 174.392 13.2585 174.114 13.2983C173.835 13.3381 173.594 13.3722 173.389 13.4006C172.929 13.4631 172.517 13.5653 172.153 13.7074C171.79 13.8494 171.503 14.0483 171.293 14.304C171.082 14.554 170.977 14.8778 170.977 15.2756C170.977 15.8438 171.185 16.2727 171.599 16.5625C172.014 16.8523 172.543 16.9972 173.185 16.9972Z" fill="#F0F9FF"/>
</svg>
