<svg width="195" height="38" viewBox="0 0 195 38" fill="none" xmlns="http://www.w3.org/2000/svg">
<g clip-path="url(#clip0_19_23)">
<path fill-rule="evenodd" clip-rule="evenodd" d="M19.7563 0.904236C29.8326 0.904236 37.7627 9.02022 37.7627 18.9082C37.7627 28.8513 29.6995 36.9133 19.7563 36.9133C9.81318 36.9133 1.75357 28.8513 1.75357 18.9082C1.75357 8.96024 9.81318 0.904236 19.7563 0.904236ZM19.7155 22.6812L14.6792 5.97178L8.15879 27.3661H9.38368C9.38368 27.3661 10.2067 23.6422 11.5431 21.4204C12.2714 20.2147 13.3943 19.2273 14.8939 19.2537C15.9485 19.2753 16.865 19.8523 18.0096 21.4516C18.697 22.4101 19.7551 24.8503 19.7551 24.8503C19.7551 24.8503 20.8121 22.4125 21.5043 21.4516C22.6428 19.8523 23.5582 19.2753 24.6187 19.2537C26.1159 19.2273 27.2413 20.2147 27.9671 21.4228C29.3036 23.6434 30.1266 27.3661 30.1266 27.3661H31.3539L24.8275 5.97178L19.7935 22.6812L19.7575 22.71L19.7155 22.6812ZM49.7897 24.9535L53.3144 12.96H59.3861L60.9181 18.0852L65.3235 12.9361H71.7671L68.4163 24.9427L63.5431 24.9595L65.3235 18.7666L59.6692 24.9595H57.2758L55.5315 18.3347L53.5712 24.9595L49.7897 24.9535ZM92.6743 12.9349L107.636 12.96L106.734 16.8327H101.599L99.4886 24.9535L94.7546 24.9595L96.7233 16.8675H91.6665L92.6743 12.9349ZM132.791 12.9588V15.7434H132.798L132.215 18.066H137.346C137.346 18.066 138.591 17.8512 138.659 16.7103C138.72 15.7086 137.784 15.7782 137.784 15.7782L132.791 15.759V12.9588H140.518C140.518 12.9588 143.827 13.2084 143.501 16.0697C143.169 18.9274 140.129 19.8403 140.129 19.8403C140.129 19.8403 139.949 20.0227 140.091 20.1307C140.234 20.2339 141.365 20.4486 141.512 21.5199C141.655 22.5925 141.139 23.3699 141.139 23.695C141.139 24.0153 141.171 24.6584 141.577 24.9415H136.696C136.696 24.9415 135.822 24.8083 135.902 23.9073C135.973 23.0196 136.012 22.2362 136.012 22.2362C136.012 22.2362 135.942 21.3064 134.633 21.4144L131.064 21.3784L130.044 24.9523H125.57L128.975 12.9577L132.791 12.9588ZM166.695 12.9588H171.278L169.059 21.6579H176.6L175.724 24.9643H163.567L166.695 12.9588ZM191.244 12.9481L193.995 24.9595H189.226L188.724 22.8792L188.707 22.8348H182.93L182.912 22.8576L181.516 24.9535L177.48 24.9595L185.63 12.9481L187.212 16.4884L184.847 19.9843L184.916 20.0143H187.98L188.034 20.0083L187.212 16.4884L185.63 12.9481H191.244ZM82.4468 15.6174C83.8997 15.6174 85.3309 16.3348 85.5553 17.381C86.2475 20.7197 82.6868 22.1486 83.1043 21.9362C81.0564 22.9548 77.9443 22.6285 77.5772 20.5242C77.2329 18.4991 78.7937 16.5064 80.1062 16.0313C81.0072 15.7086 81.7522 15.5682 82.4468 15.6174L82.4564 15.5862L82.4732 12.473C81.5326 12.4922 80.4733 12.6085 79.6335 12.7717C76.0464 13.4615 71.5199 16.7223 72.3189 20.8505C72.9895 24.3392 77.7236 26.2156 83.0323 25.1886C88.0062 24.2349 91.2646 20.403 90.5628 16.9995C89.8874 13.7123 85.9955 12.473 82.4732 12.473V15.1651L82.4468 15.6174ZM117.236 15.6174C118.689 15.6174 120.125 16.3348 120.338 17.381C121.039 20.7197 117.477 22.1486 117.902 21.9362C115.849 22.9548 112.735 22.6285 112.37 20.5242C112.018 18.4991 113.582 16.5064 114.9 16.0313C115.799 15.7086 116.548 15.5682 117.236 15.6174L117.248 15.5862L117.267 12.473C116.33 12.4922 115.266 12.6085 114.425 12.7717C110.838 13.4615 106.305 16.7223 107.104 20.8505C107.777 24.3392 112.517 26.2156 117.818 25.1886C122.799 24.2349 126.056 20.403 125.355 16.9995C124.682 13.7123 120.788 12.473 117.267 12.473V15.1651L117.236 15.6174ZM155.059 15.585C156.512 15.6654 157.933 16.3336 158.154 17.381C158.85 20.7197 155.283 22.1486 155.715 21.9362C153.662 22.9548 150.55 22.6285 150.183 20.5242C149.832 18.4991 151.395 16.5064 152.711 16.0313C153.796 15.6402 154.215 15.5298 155.059 15.585L155.08 12.4718C154.141 12.491 153.084 12.6073 152.234 12.7705C148.654 13.4603 144.126 16.7211 144.92 20.8493C145.591 24.338 150.331 26.2144 155.631 25.1874C160.607 24.2337 163.869 20.4018 163.164 16.9983C162.491 13.7111 158.597 12.4718 155.08 12.4718V15.1639L155.059 15.585Z" fill="#1971C2"/>
</g>
<defs>
<clipPath id="clip0_19_23">
<rect width="194.25" height="37" fill="white" transform="translate(0.75 0.408203)"/>
</clipPath>
</defs>
</svg>
