<svg width="96" height="45" viewBox="0 0 96 45" fill="none" xmlns="http://www.w3.org/2000/svg">
<g clip-path="url(#clip0_19_2)">
<path d="M23.1751 44.994C35.598 44.994 45.6698 34.9228 45.6698 22.5C45.6698 10.0771 35.5986 0.00592041 23.1751 0.00592041C10.7517 0.00592041 0.680504 10.0771 0.680504 22.5C0.680504 34.9228 10.7517 44.994 23.1751 44.994Z" fill="#1971C2"/>
<path d="M28.6525 30.4162H23.9942V12.8101H22.2666V32.1534H23.9942V32.142H28.6525V30.4162Z" fill="white"/>
<path d="M40.2796 23.2205H28.6798V21.4929H41.9787C41.9964 21.8269 42.0049 22.1615 42.0049 22.5C42.0049 32.9001 33.5741 41.3304 23.1746 41.3304C12.7751 41.3304 4.34422 32.9001 4.34422 22.5C4.34422 12.1 12.7751 3.66968 23.1751 3.66968C23.4493 3.66968 23.7229 3.67538 23.9947 3.68735L23.9925 5.40179C23.7202 5.38922 23.4477 5.38295 23.1751 5.38298C13.7218 5.38298 6.05752 13.0467 6.05752 22.5C6.05752 31.954 13.7212 39.6171 23.1751 39.6171C32.3709 39.6171 39.8727 32.366 40.2751 23.2689L40.2796 23.2205Z" fill="white"/>
<path d="M16.1509 18.0218C16.8527 18.0218 17.5257 17.743 18.022 17.2468C18.5182 16.7506 18.797 16.0776 18.797 15.3758C18.797 14.674 18.5182 14.001 18.022 13.5047C17.5257 13.0085 16.8527 12.7297 16.1509 12.7297C15.4492 12.7297 14.7761 13.0085 14.2799 13.5047C13.7837 14.001 13.5049 14.674 13.5049 15.3758C13.5049 16.0776 13.7837 16.7506 14.2799 17.2468C14.7761 17.743 15.4492 18.0218 16.1509 18.0218Z" fill="white"/>
<path d="M56.8393 33.5412H72.9127V28.6869H62.7406V11.3042H56.8393V33.5412ZM92.333 12.8699C90.4903 11.4422 88.1176 10.7183 85.286 10.7183C81.9238 10.7183 79.1145 11.7511 77.1612 13.7026C75.1225 15.7425 74.043 18.7474 74.043 22.3923C74.043 26.2862 75.184 29.572 77.2558 31.6421C78.8825 33.2682 81.0495 34.126 83.5294 34.126C88.9731 34.126 90.2253 30.863 90.2253 30.863V33.5401H95.1412V20.9816H85.3555V24.9115H89.8594C89.8594 24.9115 89.9027 29.8593 85.2541 29.8593C84.0731 29.8593 83.021 29.4307 82.2116 28.6213C80.9503 27.3612 80.2835 25.2375 80.2835 22.4846C80.2835 17.9249 82.0959 15.2028 85.1304 15.2028C87.0261 15.2028 88.451 16.3666 88.8163 18.1307H95.0768C94.7525 15.5675 94.0491 14.2316 92.333 12.8699Z" fill="#1971C2"/>
</g>
<defs>
<clipPath id="clip0_19_2">
<rect width="94.4824" height="45" fill="white" transform="translate(0.669632)"/>
</clipPath>
</defs>
</svg>
