<svg width="25" height="18" viewBox="0 0 25 18" fill="none" xmlns="http://www.w3.org/2000/svg">
<path d="M24.9568 9C24.9568 9.26522 24.8514 9.51957 24.6639 9.70711C24.4764 9.89464 24.222 10 23.9568 10H1.95679C1.69157 10 1.43722 9.89464 1.24968 9.70711C1.06214 9.51957 0.956787 9.26522 0.956787 9C0.956787 8.73478 1.06214 8.48043 1.24968 8.29289C1.43722 8.10536 1.69157 8 1.95679 8H23.9568C24.222 8 24.4764 8.10536 24.6639 8.29289C24.8514 8.48043 24.9568 8.73478 24.9568 9ZM1.95679 2H23.9568C24.222 2 24.4764 1.89464 24.6639 1.70711C24.8514 1.51957 24.9568 1.26522 24.9568 1C24.9568 0.734784 24.8514 0.48043 24.6639 0.292893C24.4764 0.105357 24.222 0 23.9568 0H1.95679C1.69157 0 1.43722 0.105357 1.24968 0.292893C1.06214 0.48043 0.956787 0.734784 0.956787 1C0.956787 1.26522 1.06214 1.51957 1.24968 1.70711C1.43722 1.89464 1.69157 2 1.95679 2ZM23.9568 16H1.95679C1.69157 16 1.43722 16.1054 1.24968 16.2929C1.06214 16.4804 0.956787 16.7348 0.956787 17C0.956787 17.2652 1.06214 17.5196 1.24968 17.7071C1.43722 17.8946 1.69157 18 1.95679 18H23.9568C24.222 18 24.4764 17.8946 24.6639 17.7071C24.8514 17.5196 24.9568 17.2652 24.9568 17C24.9568 16.7348 24.8514 16.4804 24.6639 16.2929C24.4764 16.1054 24.222 16 23.9568 16Z" fill="black"/>
</svg>
