<svg width="85" height="63" viewBox="0 0 85 63" fill="none" xmlns="http://www.w3.org/2000/svg">
<path d="M8.25 48.375V7.75C8.25 6.0924 8.90848 4.50268 10.0806 3.33058C11.2527 2.15848 12.8424 1.5 14.5 1.5H70.75C72.4076 1.5 73.9973 2.15848 75.1694 3.33058C76.3415 4.50268 77 6.0924 77 7.75V48.375" stroke="white" stroke-width="3" stroke-linecap="round" stroke-linejoin="round"/>
<path d="M2 48.375H83.25V54.625C83.25 56.2826 82.5915 57.8723 81.4194 59.0444C80.2473 60.2165 78.6576 60.875 77 60.875H8.25C6.5924 60.875 5.00268 60.2165 3.83058 59.0444C2.65848 57.8723 2 56.2826 2 54.625V48.375Z" stroke="white" stroke-width="3" stroke-linecap="round" stroke-linejoin="round"/>
<path d="M48.875 14H36.375" stroke="white" stroke-width="3" stroke-linecap="round" stroke-linejoin="round"/>
</svg>
